M48
; DRILL file {KiCad (5.1.2)-2} date 05/03/2021 11:54:56
; FORMAT={-:-/ absolute / inch / decimal}
; #@! TF.CreationDate,2021-03-05T11:54:56+01:00
; #@! TF.GenerationSoftware,Kicad,Pcbnew,(5.1.2)-2
; #@! TF.FileFunction,Plated,1,2,PTH
FMAT,2
INCH
T1C0.0276
T2C0.0315
T3C0.0400
T4C0.1200
%
G90
G05
T1
X5.12Y-3.875
X4.97Y-4.275
X5.07Y-4.775
X5.27Y-4.775
X4.92Y-3.725
X5.12Y-3.725
X4.92Y-3.875
X5.17Y-4.275
X6.02Y-4.025
X6.22Y-4.025
T2
X5.472Y-3.825
X5.472Y-3.925
X5.472Y-4.025
X5.472Y-4.125
X5.768Y-3.825
X5.768Y-3.925
X5.768Y-4.025
X5.768Y-4.125
X4.87Y-4.075
X5.1653Y-4.075
X6.72Y-3.825
X6.72Y-3.925
X6.72Y-4.025
X6.72Y-4.125
X6.47Y-4.025
X6.47Y-4.3203
X5.07Y-4.525
X5.2669Y-4.525
X5.122Y-3.525
X5.418Y-3.525
X5.62Y-3.325
X5.72Y-3.325
X5.82Y-3.325
X5.92Y-3.325
X6.12Y-3.525
X6.12Y-3.8203
T3
X6.37Y-4.875
X6.47Y-4.875
X6.57Y-4.875
X6.67Y-4.875
X6.77Y-4.875
X6.87Y-4.875
X6.17Y-2.975
X6.27Y-2.975
X6.37Y-2.975
X6.47Y-2.975
X6.57Y-2.975
X6.67Y-2.975
X6.77Y-2.975
X6.87Y-2.975
X5.47Y-4.875
X5.57Y-4.875
X5.67Y-4.875
X5.77Y-4.875
X5.87Y-4.875
X5.97Y-4.875
X6.07Y-4.875
X6.17Y-4.875
X5.11Y-2.975
X5.21Y-2.975
X5.31Y-2.975
X5.41Y-2.975
X5.51Y-2.975
X5.61Y-2.975
X5.71Y-2.975
X5.81Y-2.975
X5.91Y-2.975
X6.01Y-2.975
T4
X6.97Y-4.675
X4.92Y-4.875
X4.97Y-2.975
X6.97Y-3.575
T0
M30
