G04 #@! TF.GenerationSoftware,KiCad,Pcbnew,(5.1.2)-2*
G04 #@! TF.CreationDate,2021-03-05T11:54:59+01:00*
G04 #@! TF.ProjectId,capteur,63617074-6575-4722-9e6b-696361645f70,rev?*
G04 #@! TF.SameCoordinates,Original*
G04 #@! TF.FileFunction,Copper,L2,Bot*
G04 #@! TF.FilePolarity,Positive*
%FSLAX46Y46*%
G04 Gerber Fmt 4.6, Leading zero omitted, Abs format (unit mm)*
G04 Created by KiCad (PCBNEW (5.1.2)-2) date 2021-03-05 11:54:59*
%MOMM*%
%LPD*%
G04 APERTURE LIST*
%ADD10C,0.300000*%
%ADD11C,2.000000*%
%ADD12O,1.727200X2.032000*%
%ADD13C,4.064000*%
%ADD14C,1.600000*%
%ADD15O,1.600000X1.600000*%
%ADD16C,1.400000*%
%ADD17O,1.400000X1.400000*%
%ADD18R,2.000000X2.000000*%
%ADD19C,0.500000*%
%ADD20C,0.254000*%
G04 APERTURE END LIST*
D10*
X114216571Y-74542142D02*
X112716571Y-74542142D01*
X112716571Y-74899285D01*
X112788000Y-75113571D01*
X112930857Y-75256428D01*
X113073714Y-75327857D01*
X113359428Y-75399285D01*
X113573714Y-75399285D01*
X113859428Y-75327857D01*
X114002285Y-75256428D01*
X114145142Y-75113571D01*
X114216571Y-74899285D01*
X114216571Y-74542142D01*
X113430857Y-76042142D02*
X113430857Y-76542142D01*
X114216571Y-76756428D02*
X114216571Y-76042142D01*
X112716571Y-76042142D01*
X112716571Y-76756428D01*
X114216571Y-78256428D02*
X113502285Y-77756428D01*
X114216571Y-77399285D02*
X112716571Y-77399285D01*
X112716571Y-77970714D01*
X112788000Y-78113571D01*
X112859428Y-78185000D01*
X113002285Y-78256428D01*
X113216571Y-78256428D01*
X113359428Y-78185000D01*
X113430857Y-78113571D01*
X113502285Y-77970714D01*
X113502285Y-77399285D01*
X112788000Y-79685000D02*
X112716571Y-79542142D01*
X112716571Y-79327857D01*
X112788000Y-79113571D01*
X112930857Y-78970714D01*
X113073714Y-78899285D01*
X113359428Y-78827857D01*
X113573714Y-78827857D01*
X113859428Y-78899285D01*
X114002285Y-78970714D01*
X114145142Y-79113571D01*
X114216571Y-79327857D01*
X114216571Y-79470714D01*
X114145142Y-79685000D01*
X114073714Y-79756428D01*
X113573714Y-79756428D01*
X113573714Y-79470714D01*
X114216571Y-80399285D02*
X112716571Y-80399285D01*
X114073714Y-81970714D02*
X114145142Y-81899285D01*
X114216571Y-81685000D01*
X114216571Y-81542142D01*
X114145142Y-81327857D01*
X114002285Y-81185000D01*
X113859428Y-81113571D01*
X113573714Y-81042142D01*
X113359428Y-81042142D01*
X113073714Y-81113571D01*
X112930857Y-81185000D01*
X112788000Y-81327857D01*
X112716571Y-81542142D01*
X112716571Y-81685000D01*
X112788000Y-81899285D01*
X112859428Y-81970714D01*
X114216571Y-82613571D02*
X112716571Y-82613571D01*
X114359428Y-82970714D02*
X114359428Y-84113571D01*
X114216571Y-85185000D02*
X114216571Y-84470714D01*
X112716571Y-84470714D01*
X112716571Y-85970714D02*
X112716571Y-86256428D01*
X112788000Y-86399285D01*
X112930857Y-86542142D01*
X113216571Y-86613571D01*
X113716571Y-86613571D01*
X114002285Y-86542142D01*
X114145142Y-86399285D01*
X114216571Y-86256428D01*
X114216571Y-85970714D01*
X114145142Y-85827857D01*
X114002285Y-85685000D01*
X113716571Y-85613571D01*
X113216571Y-85613571D01*
X112930857Y-85685000D01*
X112788000Y-85827857D01*
X112716571Y-85970714D01*
X114216571Y-87256428D02*
X112716571Y-87256428D01*
X114145142Y-87899285D02*
X114216571Y-88113571D01*
X114216571Y-88470714D01*
X114145142Y-88613571D01*
X114073714Y-88685000D01*
X113930857Y-88756428D01*
X113788000Y-88756428D01*
X113645142Y-88685000D01*
X113573714Y-88613571D01*
X113502285Y-88470714D01*
X113430857Y-88185000D01*
X113359428Y-88042142D01*
X113288000Y-87970714D01*
X113145142Y-87899285D01*
X113002285Y-87899285D01*
X112859428Y-87970714D01*
X112788000Y-88042142D01*
X112716571Y-88185000D01*
X112716571Y-88542142D01*
X112788000Y-88756428D01*
X112716571Y-89685000D02*
X112716571Y-89970714D01*
X112788000Y-90113571D01*
X112930857Y-90256428D01*
X113216571Y-90327857D01*
X113716571Y-90327857D01*
X114002285Y-90256428D01*
X114145142Y-90113571D01*
X114216571Y-89970714D01*
X114216571Y-89685000D01*
X114145142Y-89542142D01*
X114002285Y-89399285D01*
X113716571Y-89327857D01*
X113216571Y-89327857D01*
X112930857Y-89399285D01*
X112788000Y-89542142D01*
X112716571Y-89685000D01*
X114216571Y-90970714D02*
X112716571Y-90970714D01*
X114216571Y-91827857D01*
X112716571Y-91827857D01*
D11*
X142748000Y-84455000D03*
X145288000Y-84455000D03*
X147828000Y-84455000D03*
X150368000Y-84455000D03*
D12*
X138938000Y-123825000D03*
X141478000Y-123825000D03*
X144018000Y-123825000D03*
X146558000Y-123825000D03*
X149098000Y-123825000D03*
X151638000Y-123825000D03*
X154178000Y-123825000D03*
X156718000Y-123825000D03*
X161798000Y-123825000D03*
X164338000Y-123825000D03*
X166878000Y-123825000D03*
X169418000Y-123825000D03*
X171958000Y-123825000D03*
X174498000Y-123825000D03*
X129794000Y-75565000D03*
X132334000Y-75565000D03*
X134874000Y-75565000D03*
X137414000Y-75565000D03*
X139954000Y-75565000D03*
X142494000Y-75565000D03*
X145034000Y-75565000D03*
X147574000Y-75565000D03*
X150114000Y-75565000D03*
X152654000Y-75565000D03*
X156718000Y-75565000D03*
X159258000Y-75565000D03*
X161798000Y-75565000D03*
X164338000Y-75565000D03*
X166878000Y-75565000D03*
X169418000Y-75565000D03*
X171958000Y-75565000D03*
X174498000Y-75565000D03*
D13*
X124968000Y-123825000D03*
X177038000Y-118745000D03*
X126238000Y-75565000D03*
X177038000Y-90805000D03*
D14*
X123698000Y-103505000D03*
D15*
X131198000Y-103505000D03*
X164338000Y-109735000D03*
D14*
X164338000Y-102235000D03*
X155448000Y-89535000D03*
D15*
X155448000Y-97035000D03*
D14*
X128778000Y-114935000D03*
X133778000Y-114935000D03*
D16*
X124968000Y-98425000D03*
D17*
X130048000Y-98425000D03*
D16*
X131318000Y-108585000D03*
D17*
X126238000Y-108585000D03*
X133858000Y-121285000D03*
D16*
X128778000Y-121285000D03*
X130048000Y-94615000D03*
D17*
X124968000Y-94615000D03*
X152908000Y-102235000D03*
D16*
X157988000Y-102235000D03*
D11*
X137618000Y-89535000D03*
X130098000Y-89535000D03*
X146508000Y-97155000D03*
D18*
X138988000Y-97155000D03*
D11*
X146508000Y-99695000D03*
X138988000Y-99695000D03*
X146508000Y-102235000D03*
X138988000Y-102235000D03*
X146508000Y-104775000D03*
X138988000Y-104775000D03*
X170688000Y-97155000D03*
X170688000Y-99695000D03*
X170688000Y-102235000D03*
X170688000Y-104775000D03*
D19*
X146508000Y-99695000D02*
X147778000Y-98425000D01*
X154058000Y-98425000D02*
X155448000Y-97035000D01*
X146508000Y-99695000D02*
X147778000Y-100965000D01*
X155448000Y-118745000D02*
X154178000Y-120015000D01*
X149098000Y-121285000D02*
X149098000Y-123825000D01*
X154178000Y-120015000D02*
X150368000Y-120015000D01*
X154178000Y-100965000D02*
X155448000Y-102235000D01*
X150368000Y-120015000D02*
X149098000Y-121285000D01*
X147778000Y-100965000D02*
X154178000Y-100965000D01*
X155448000Y-102235000D02*
X155448000Y-118745000D01*
X176512990Y-125620010D02*
X176293010Y-125839990D01*
X176512990Y-122310028D02*
X176512990Y-125620010D01*
X174498000Y-120295038D02*
X176512990Y-122310028D01*
X149098000Y-123977400D02*
X149098000Y-123825000D01*
X150960590Y-125839990D02*
X149098000Y-123977400D01*
X176293010Y-125839990D02*
X150960590Y-125839990D01*
X137668000Y-89485000D02*
X137618000Y-89535000D01*
X170688000Y-99695000D02*
X173228000Y-99695000D01*
X173228000Y-99695000D02*
X174498000Y-100965000D01*
X150368000Y-84455000D02*
X150368000Y-88265000D01*
X149098000Y-89535000D02*
X137618000Y-89535000D01*
X150368000Y-88265000D02*
X149098000Y-89535000D01*
X149098000Y-89535000D02*
X149098000Y-97155000D01*
X149098000Y-97155000D02*
X149098000Y-98425000D01*
X147778000Y-98425000D02*
X149098000Y-98425000D01*
X149098000Y-98425000D02*
X154058000Y-98425000D01*
X174498000Y-102235000D02*
X174498000Y-104775000D01*
X174498000Y-104775000D02*
X174498000Y-120295038D01*
X174498000Y-103785038D02*
X174498000Y-104775000D01*
X174498000Y-102235000D02*
X174498000Y-103505000D01*
X174498000Y-100965000D02*
X174498000Y-102235000D01*
X135128000Y-102235000D02*
X133858000Y-100965000D01*
X138988000Y-102235000D02*
X135128000Y-102235000D01*
X126238000Y-100965000D02*
X123698000Y-103505000D01*
X133858000Y-100965000D02*
X126238000Y-100965000D01*
X122428000Y-100965000D02*
X122428000Y-102235000D01*
X124968000Y-98425000D02*
X122428000Y-100965000D01*
X122428000Y-102235000D02*
X123698000Y-103505000D01*
X124968000Y-98425000D02*
X124968000Y-94615000D01*
X165608000Y-121285000D02*
X162822000Y-121285000D01*
X164338000Y-102235000D02*
X166878000Y-102235000D01*
X168148000Y-118745000D02*
X165608000Y-121285000D01*
X168148000Y-103505000D02*
X168148000Y-118745000D01*
X161798000Y-122309000D02*
X161798000Y-123825000D01*
X166878000Y-102235000D02*
X168148000Y-103505000D01*
X162822000Y-121285000D02*
X161798000Y-122309000D01*
X157988000Y-102235000D02*
X164338000Y-102235000D01*
X124968000Y-116205000D02*
X126238000Y-114935000D01*
X126238000Y-114935000D02*
X128778000Y-114935000D01*
X124968000Y-120015000D02*
X124968000Y-116205000D01*
X128778000Y-121285000D02*
X126238000Y-121285000D01*
X126238000Y-121285000D02*
X124968000Y-120015000D01*
X128778000Y-114935000D02*
X128778000Y-111125000D01*
X128778000Y-111125000D02*
X131318000Y-108585000D01*
X141478000Y-108585000D02*
X131318000Y-108585000D01*
X142748000Y-100965000D02*
X142748000Y-107315000D01*
X141478000Y-99695000D02*
X142748000Y-100965000D01*
X138988000Y-99695000D02*
X141478000Y-99695000D01*
X142748000Y-107315000D02*
X141478000Y-108585000D01*
X146508000Y-102235000D02*
X152908000Y-102235000D01*
X133858000Y-121285000D02*
X133858000Y-115015000D01*
X149098000Y-112395000D02*
X149098000Y-104775000D01*
X147828000Y-114935000D02*
X149098000Y-112395000D01*
X133778000Y-114935000D02*
X147828000Y-114935000D01*
X149098000Y-104775000D02*
X146558000Y-102235000D01*
X170688000Y-104775000D02*
X171958000Y-106045000D01*
X171958000Y-106045000D02*
X171958000Y-123825000D01*
X174498000Y-123825000D02*
X174498000Y-121285000D01*
X174498000Y-121285000D02*
X173228000Y-120015000D01*
X173228000Y-120015000D02*
X173228000Y-103505000D01*
X173228000Y-103505000D02*
X171958000Y-102235000D01*
X171958000Y-102235000D02*
X170688000Y-102235000D01*
X145034000Y-75565000D02*
X145034000Y-75717400D01*
X142748000Y-84455000D02*
X142748000Y-79375000D01*
X145034000Y-77089000D02*
X145034000Y-75565000D01*
X142748000Y-79375000D02*
X145034000Y-77089000D01*
X147574000Y-77089000D02*
X147574000Y-75565000D01*
X145288000Y-84455000D02*
X145288000Y-79375000D01*
X145288000Y-79375000D02*
X147574000Y-77089000D01*
X130048000Y-94615000D02*
X130048000Y-89585000D01*
D20*
G36*
X111748000Y-92970000D02*
G01*
X115568000Y-92970000D01*
X115568000Y-89373967D01*
X128463000Y-89373967D01*
X128463000Y-89696033D01*
X128525832Y-90011912D01*
X128649082Y-90309463D01*
X128828013Y-90577252D01*
X129055748Y-90804987D01*
X129163001Y-90876651D01*
X129163000Y-93612025D01*
X129011038Y-93763987D01*
X128864939Y-93982641D01*
X128764304Y-94225595D01*
X128713000Y-94483514D01*
X128713000Y-94746486D01*
X128764304Y-95004405D01*
X128864939Y-95247359D01*
X129011038Y-95466013D01*
X129196987Y-95651962D01*
X129415641Y-95798061D01*
X129658595Y-95898696D01*
X129916514Y-95950000D01*
X130179486Y-95950000D01*
X130437405Y-95898696D01*
X130680359Y-95798061D01*
X130899013Y-95651962D01*
X131084962Y-95466013D01*
X131231061Y-95247359D01*
X131331696Y-95004405D01*
X131383000Y-94746486D01*
X131383000Y-94483514D01*
X131331696Y-94225595D01*
X131231061Y-93982641D01*
X131084962Y-93763987D01*
X130933000Y-93612025D01*
X130933000Y-90943468D01*
X131140252Y-90804987D01*
X131367987Y-90577252D01*
X131546918Y-90309463D01*
X131670168Y-90011912D01*
X131733000Y-89696033D01*
X131733000Y-89373967D01*
X131670168Y-89058088D01*
X131546918Y-88760537D01*
X131367987Y-88492748D01*
X131140252Y-88265013D01*
X130872463Y-88086082D01*
X130574912Y-87962832D01*
X130259033Y-87900000D01*
X129936967Y-87900000D01*
X129621088Y-87962832D01*
X129323537Y-88086082D01*
X129055748Y-88265013D01*
X128828013Y-88492748D01*
X128649082Y-88760537D01*
X128525832Y-89058088D01*
X128463000Y-89373967D01*
X115568000Y-89373967D01*
X115568000Y-73735000D01*
X124296293Y-73735000D01*
X124166406Y-73864887D01*
X123874536Y-74301702D01*
X123673492Y-74787065D01*
X123571000Y-75302323D01*
X123571000Y-75827677D01*
X123673492Y-76342935D01*
X123874536Y-76828298D01*
X124166406Y-77265113D01*
X124537887Y-77636594D01*
X124974702Y-77928464D01*
X125460065Y-78129508D01*
X125975323Y-78232000D01*
X126500677Y-78232000D01*
X127015935Y-78129508D01*
X127501298Y-77928464D01*
X127938113Y-77636594D01*
X128309594Y-77265113D01*
X128601464Y-76828298D01*
X128657001Y-76694219D01*
X128729203Y-76782197D01*
X128957395Y-76969469D01*
X129217737Y-77108625D01*
X129500224Y-77194316D01*
X129794000Y-77223251D01*
X130087777Y-77194316D01*
X130370264Y-77108625D01*
X130630606Y-76969469D01*
X130858797Y-76782197D01*
X131046069Y-76554006D01*
X131064000Y-76520459D01*
X131081931Y-76554006D01*
X131269203Y-76782197D01*
X131497395Y-76969469D01*
X131757737Y-77108625D01*
X132040224Y-77194316D01*
X132334000Y-77223251D01*
X132627777Y-77194316D01*
X132910264Y-77108625D01*
X133170606Y-76969469D01*
X133398797Y-76782197D01*
X133586069Y-76554006D01*
X133604000Y-76520459D01*
X133621931Y-76554006D01*
X133809203Y-76782197D01*
X134037395Y-76969469D01*
X134297737Y-77108625D01*
X134580224Y-77194316D01*
X134874000Y-77223251D01*
X135167777Y-77194316D01*
X135450264Y-77108625D01*
X135710606Y-76969469D01*
X135938797Y-76782197D01*
X136126069Y-76554006D01*
X136147424Y-76514053D01*
X136295514Y-76716729D01*
X136511965Y-76915733D01*
X136763081Y-77068686D01*
X137039211Y-77169709D01*
X137054974Y-77172358D01*
X137287000Y-77051217D01*
X137287000Y-75692000D01*
X137267000Y-75692000D01*
X137267000Y-75438000D01*
X137287000Y-75438000D01*
X137287000Y-74078783D01*
X137541000Y-74078783D01*
X137541000Y-75438000D01*
X137561000Y-75438000D01*
X137561000Y-75692000D01*
X137541000Y-75692000D01*
X137541000Y-77051217D01*
X137773026Y-77172358D01*
X137788789Y-77169709D01*
X138064919Y-77068686D01*
X138316035Y-76915733D01*
X138532486Y-76716729D01*
X138680576Y-76514053D01*
X138701931Y-76554006D01*
X138889203Y-76782197D01*
X139117395Y-76969469D01*
X139377737Y-77108625D01*
X139660224Y-77194316D01*
X139954000Y-77223251D01*
X140247777Y-77194316D01*
X140530264Y-77108625D01*
X140790606Y-76969469D01*
X141018797Y-76782197D01*
X141206069Y-76554006D01*
X141224000Y-76520459D01*
X141241931Y-76554006D01*
X141429203Y-76782197D01*
X141657395Y-76969469D01*
X141917737Y-77108625D01*
X142200224Y-77194316D01*
X142494000Y-77223251D01*
X142787777Y-77194316D01*
X143070264Y-77108625D01*
X143330606Y-76969469D01*
X143558797Y-76782197D01*
X143746069Y-76554006D01*
X143764000Y-76520459D01*
X143781931Y-76554006D01*
X143969203Y-76782197D01*
X144035124Y-76836297D01*
X142152951Y-78718471D01*
X142119184Y-78746183D01*
X142091471Y-78779951D01*
X142091468Y-78779954D01*
X142008590Y-78880941D01*
X141926412Y-79034687D01*
X141875805Y-79201510D01*
X141858719Y-79375000D01*
X141863001Y-79418479D01*
X141863000Y-83079940D01*
X141705748Y-83185013D01*
X141478013Y-83412748D01*
X141299082Y-83680537D01*
X141175832Y-83978088D01*
X141113000Y-84293967D01*
X141113000Y-84616033D01*
X141175832Y-84931912D01*
X141299082Y-85229463D01*
X141478013Y-85497252D01*
X141705748Y-85724987D01*
X141973537Y-85903918D01*
X142271088Y-86027168D01*
X142586967Y-86090000D01*
X142909033Y-86090000D01*
X143224912Y-86027168D01*
X143522463Y-85903918D01*
X143790252Y-85724987D01*
X144017987Y-85497252D01*
X144018000Y-85497233D01*
X144018013Y-85497252D01*
X144245748Y-85724987D01*
X144513537Y-85903918D01*
X144811088Y-86027168D01*
X145126967Y-86090000D01*
X145449033Y-86090000D01*
X145764912Y-86027168D01*
X146062463Y-85903918D01*
X146330252Y-85724987D01*
X146464826Y-85590413D01*
X146872192Y-85590413D01*
X146967956Y-85854814D01*
X147257571Y-85995704D01*
X147569108Y-86077384D01*
X147890595Y-86096718D01*
X148209675Y-86052961D01*
X148514088Y-85947795D01*
X148688044Y-85854814D01*
X148783808Y-85590413D01*
X147828000Y-84634605D01*
X146872192Y-85590413D01*
X146464826Y-85590413D01*
X146557987Y-85497252D01*
X146630720Y-85388400D01*
X146692587Y-85410808D01*
X147648395Y-84455000D01*
X146692587Y-83499192D01*
X146630720Y-83521600D01*
X146557987Y-83412748D01*
X146464826Y-83319587D01*
X146872192Y-83319587D01*
X147828000Y-84275395D01*
X148783808Y-83319587D01*
X148688044Y-83055186D01*
X148398429Y-82914296D01*
X148086892Y-82832616D01*
X147765405Y-82813282D01*
X147446325Y-82857039D01*
X147141912Y-82962205D01*
X146967956Y-83055186D01*
X146872192Y-83319587D01*
X146464826Y-83319587D01*
X146330252Y-83185013D01*
X146173000Y-83079941D01*
X146173000Y-79741578D01*
X148169050Y-77745529D01*
X148202817Y-77717817D01*
X148313411Y-77583059D01*
X148395589Y-77429313D01*
X148446195Y-77262490D01*
X148459000Y-77132477D01*
X148459000Y-77132467D01*
X148463281Y-77089001D01*
X148459000Y-77045535D01*
X148459000Y-76929753D01*
X148638797Y-76782197D01*
X148826069Y-76554006D01*
X148844000Y-76520459D01*
X148861931Y-76554006D01*
X149049203Y-76782197D01*
X149277395Y-76969469D01*
X149537737Y-77108625D01*
X149820224Y-77194316D01*
X150114000Y-77223251D01*
X150407777Y-77194316D01*
X150690264Y-77108625D01*
X150950606Y-76969469D01*
X151178797Y-76782197D01*
X151366069Y-76554006D01*
X151384000Y-76520459D01*
X151401931Y-76554006D01*
X151589203Y-76782197D01*
X151817395Y-76969469D01*
X152077737Y-77108625D01*
X152360224Y-77194316D01*
X152654000Y-77223251D01*
X152947777Y-77194316D01*
X153230264Y-77108625D01*
X153490606Y-76969469D01*
X153718797Y-76782197D01*
X153906069Y-76554006D01*
X154045225Y-76293663D01*
X154130916Y-76011176D01*
X154152600Y-75791018D01*
X154152600Y-75338982D01*
X155219400Y-75338982D01*
X155219400Y-75791019D01*
X155241084Y-76011177D01*
X155326775Y-76293664D01*
X155465931Y-76554006D01*
X155653203Y-76782197D01*
X155881395Y-76969469D01*
X156141737Y-77108625D01*
X156424224Y-77194316D01*
X156718000Y-77223251D01*
X157011777Y-77194316D01*
X157294264Y-77108625D01*
X157554606Y-76969469D01*
X157782797Y-76782197D01*
X157970069Y-76554006D01*
X157988000Y-76520459D01*
X158005931Y-76554006D01*
X158193203Y-76782197D01*
X158421395Y-76969469D01*
X158681737Y-77108625D01*
X158964224Y-77194316D01*
X159258000Y-77223251D01*
X159551777Y-77194316D01*
X159834264Y-77108625D01*
X160094606Y-76969469D01*
X160322797Y-76782197D01*
X160510069Y-76554006D01*
X160528000Y-76520459D01*
X160545931Y-76554006D01*
X160733203Y-76782197D01*
X160961395Y-76969469D01*
X161221737Y-77108625D01*
X161504224Y-77194316D01*
X161798000Y-77223251D01*
X162091777Y-77194316D01*
X162374264Y-77108625D01*
X162634606Y-76969469D01*
X162862797Y-76782197D01*
X163050069Y-76554006D01*
X163068000Y-76520459D01*
X163085931Y-76554006D01*
X163273203Y-76782197D01*
X163501395Y-76969469D01*
X163761737Y-77108625D01*
X164044224Y-77194316D01*
X164338000Y-77223251D01*
X164631777Y-77194316D01*
X164914264Y-77108625D01*
X165174606Y-76969469D01*
X165402797Y-76782197D01*
X165590069Y-76554006D01*
X165608000Y-76520459D01*
X165625931Y-76554006D01*
X165813203Y-76782197D01*
X166041395Y-76969469D01*
X166301737Y-77108625D01*
X166584224Y-77194316D01*
X166878000Y-77223251D01*
X167171777Y-77194316D01*
X167454264Y-77108625D01*
X167714606Y-76969469D01*
X167942797Y-76782197D01*
X168130069Y-76554006D01*
X168148000Y-76520459D01*
X168165931Y-76554006D01*
X168353203Y-76782197D01*
X168581395Y-76969469D01*
X168841737Y-77108625D01*
X169124224Y-77194316D01*
X169418000Y-77223251D01*
X169711777Y-77194316D01*
X169994264Y-77108625D01*
X170254606Y-76969469D01*
X170482797Y-76782197D01*
X170670069Y-76554006D01*
X170688000Y-76520459D01*
X170705931Y-76554006D01*
X170893203Y-76782197D01*
X171121395Y-76969469D01*
X171381737Y-77108625D01*
X171664224Y-77194316D01*
X171958000Y-77223251D01*
X172251777Y-77194316D01*
X172534264Y-77108625D01*
X172794606Y-76969469D01*
X173022797Y-76782197D01*
X173210069Y-76554006D01*
X173228000Y-76520459D01*
X173245931Y-76554006D01*
X173433203Y-76782197D01*
X173661395Y-76969469D01*
X173921737Y-77108625D01*
X174204224Y-77194316D01*
X174498000Y-77223251D01*
X174791777Y-77194316D01*
X175074264Y-77108625D01*
X175334606Y-76969469D01*
X175562797Y-76782197D01*
X175750069Y-76554006D01*
X175889225Y-76293663D01*
X175974916Y-76011176D01*
X175996600Y-75791018D01*
X175996600Y-75338981D01*
X175974916Y-75118823D01*
X175889225Y-74836336D01*
X175750069Y-74575994D01*
X175562797Y-74347803D01*
X175334605Y-74160531D01*
X175074263Y-74021375D01*
X174791776Y-73935684D01*
X174498000Y-73906749D01*
X174204223Y-73935684D01*
X173921736Y-74021375D01*
X173661394Y-74160531D01*
X173433203Y-74347803D01*
X173245931Y-74575995D01*
X173228000Y-74609541D01*
X173210069Y-74575994D01*
X173022797Y-74347803D01*
X172794605Y-74160531D01*
X172534263Y-74021375D01*
X172251776Y-73935684D01*
X171958000Y-73906749D01*
X171664223Y-73935684D01*
X171381736Y-74021375D01*
X171121394Y-74160531D01*
X170893203Y-74347803D01*
X170705931Y-74575995D01*
X170688000Y-74609541D01*
X170670069Y-74575994D01*
X170482797Y-74347803D01*
X170254605Y-74160531D01*
X169994263Y-74021375D01*
X169711776Y-73935684D01*
X169418000Y-73906749D01*
X169124223Y-73935684D01*
X168841736Y-74021375D01*
X168581394Y-74160531D01*
X168353203Y-74347803D01*
X168165931Y-74575995D01*
X168148000Y-74609541D01*
X168130069Y-74575994D01*
X167942797Y-74347803D01*
X167714605Y-74160531D01*
X167454263Y-74021375D01*
X167171776Y-73935684D01*
X166878000Y-73906749D01*
X166584223Y-73935684D01*
X166301736Y-74021375D01*
X166041394Y-74160531D01*
X165813203Y-74347803D01*
X165625931Y-74575995D01*
X165608000Y-74609541D01*
X165590069Y-74575994D01*
X165402797Y-74347803D01*
X165174605Y-74160531D01*
X164914263Y-74021375D01*
X164631776Y-73935684D01*
X164338000Y-73906749D01*
X164044223Y-73935684D01*
X163761736Y-74021375D01*
X163501394Y-74160531D01*
X163273203Y-74347803D01*
X163085931Y-74575995D01*
X163068000Y-74609541D01*
X163050069Y-74575994D01*
X162862797Y-74347803D01*
X162634605Y-74160531D01*
X162374263Y-74021375D01*
X162091776Y-73935684D01*
X161798000Y-73906749D01*
X161504223Y-73935684D01*
X161221736Y-74021375D01*
X160961394Y-74160531D01*
X160733203Y-74347803D01*
X160545931Y-74575995D01*
X160528000Y-74609541D01*
X160510069Y-74575994D01*
X160322797Y-74347803D01*
X160094605Y-74160531D01*
X159834263Y-74021375D01*
X159551776Y-73935684D01*
X159258000Y-73906749D01*
X158964223Y-73935684D01*
X158681736Y-74021375D01*
X158421394Y-74160531D01*
X158193203Y-74347803D01*
X158005931Y-74575995D01*
X157988000Y-74609541D01*
X157970069Y-74575994D01*
X157782797Y-74347803D01*
X157554605Y-74160531D01*
X157294263Y-74021375D01*
X157011776Y-73935684D01*
X156718000Y-73906749D01*
X156424223Y-73935684D01*
X156141736Y-74021375D01*
X155881394Y-74160531D01*
X155653203Y-74347803D01*
X155465931Y-74575995D01*
X155326775Y-74836337D01*
X155241084Y-75118824D01*
X155219400Y-75338982D01*
X154152600Y-75338982D01*
X154152600Y-75338981D01*
X154130916Y-75118823D01*
X154045225Y-74836336D01*
X153906069Y-74575994D01*
X153718797Y-74347803D01*
X153490605Y-74160531D01*
X153230263Y-74021375D01*
X152947776Y-73935684D01*
X152654000Y-73906749D01*
X152360223Y-73935684D01*
X152077736Y-74021375D01*
X151817394Y-74160531D01*
X151589203Y-74347803D01*
X151401931Y-74575995D01*
X151384000Y-74609541D01*
X151366069Y-74575994D01*
X151178797Y-74347803D01*
X150950605Y-74160531D01*
X150690263Y-74021375D01*
X150407776Y-73935684D01*
X150114000Y-73906749D01*
X149820223Y-73935684D01*
X149537736Y-74021375D01*
X149277394Y-74160531D01*
X149049203Y-74347803D01*
X148861931Y-74575995D01*
X148844000Y-74609541D01*
X148826069Y-74575994D01*
X148638797Y-74347803D01*
X148410605Y-74160531D01*
X148150263Y-74021375D01*
X147867776Y-73935684D01*
X147574000Y-73906749D01*
X147280223Y-73935684D01*
X146997736Y-74021375D01*
X146737394Y-74160531D01*
X146509203Y-74347803D01*
X146321931Y-74575995D01*
X146304000Y-74609541D01*
X146286069Y-74575994D01*
X146098797Y-74347803D01*
X145870605Y-74160531D01*
X145610263Y-74021375D01*
X145327776Y-73935684D01*
X145034000Y-73906749D01*
X144740223Y-73935684D01*
X144457736Y-74021375D01*
X144197394Y-74160531D01*
X143969203Y-74347803D01*
X143781931Y-74575995D01*
X143764000Y-74609541D01*
X143746069Y-74575994D01*
X143558797Y-74347803D01*
X143330605Y-74160531D01*
X143070263Y-74021375D01*
X142787776Y-73935684D01*
X142494000Y-73906749D01*
X142200223Y-73935684D01*
X141917736Y-74021375D01*
X141657394Y-74160531D01*
X141429203Y-74347803D01*
X141241931Y-74575995D01*
X141224000Y-74609541D01*
X141206069Y-74575994D01*
X141018797Y-74347803D01*
X140790605Y-74160531D01*
X140530263Y-74021375D01*
X140247776Y-73935684D01*
X139954000Y-73906749D01*
X139660223Y-73935684D01*
X139377736Y-74021375D01*
X139117394Y-74160531D01*
X138889203Y-74347803D01*
X138701931Y-74575995D01*
X138680576Y-74615947D01*
X138532486Y-74413271D01*
X138316035Y-74214267D01*
X138064919Y-74061314D01*
X137788789Y-73960291D01*
X137773026Y-73957642D01*
X137541000Y-74078783D01*
X137287000Y-74078783D01*
X137054974Y-73957642D01*
X137039211Y-73960291D01*
X136763081Y-74061314D01*
X136511965Y-74214267D01*
X136295514Y-74413271D01*
X136147424Y-74615947D01*
X136126069Y-74575994D01*
X135938797Y-74347803D01*
X135710605Y-74160531D01*
X135450263Y-74021375D01*
X135167776Y-73935684D01*
X134874000Y-73906749D01*
X134580223Y-73935684D01*
X134297736Y-74021375D01*
X134037394Y-74160531D01*
X133809203Y-74347803D01*
X133621931Y-74575995D01*
X133604000Y-74609541D01*
X133586069Y-74575994D01*
X133398797Y-74347803D01*
X133170605Y-74160531D01*
X132910263Y-74021375D01*
X132627776Y-73935684D01*
X132334000Y-73906749D01*
X132040223Y-73935684D01*
X131757736Y-74021375D01*
X131497394Y-74160531D01*
X131269203Y-74347803D01*
X131081931Y-74575995D01*
X131064000Y-74609541D01*
X131046069Y-74575994D01*
X130858797Y-74347803D01*
X130630605Y-74160531D01*
X130370263Y-74021375D01*
X130087776Y-73935684D01*
X129794000Y-73906749D01*
X129500223Y-73935684D01*
X129217736Y-74021375D01*
X128957394Y-74160531D01*
X128729203Y-74347803D01*
X128657001Y-74435781D01*
X128601464Y-74301702D01*
X128309594Y-73864887D01*
X128179707Y-73735000D01*
X175219909Y-73735000D01*
X176328001Y-74843093D01*
X176328000Y-85944125D01*
X176324565Y-85979000D01*
X176328000Y-86013875D01*
X176328000Y-86013876D01*
X176338273Y-86118183D01*
X176378872Y-86252019D01*
X176444800Y-86375362D01*
X176533525Y-86483474D01*
X176560617Y-86505708D01*
X178868001Y-88813093D01*
X178868001Y-88863294D01*
X178738113Y-88733406D01*
X178301298Y-88441536D01*
X177815935Y-88240492D01*
X177300677Y-88138000D01*
X176775323Y-88138000D01*
X176260065Y-88240492D01*
X175774702Y-88441536D01*
X175337887Y-88733406D01*
X174966406Y-89104887D01*
X174674536Y-89541702D01*
X174473492Y-90027065D01*
X174371000Y-90542323D01*
X174371000Y-91067677D01*
X174473492Y-91582935D01*
X174674536Y-92068298D01*
X174966406Y-92505113D01*
X175337887Y-92876594D01*
X175774702Y-93168464D01*
X176260065Y-93369508D01*
X176775323Y-93472000D01*
X177300677Y-93472000D01*
X177815935Y-93369508D01*
X178301298Y-93168464D01*
X178738113Y-92876594D01*
X178868001Y-92746706D01*
X178868000Y-116803293D01*
X178738113Y-116673406D01*
X178301298Y-116381536D01*
X177815935Y-116180492D01*
X177300677Y-116078000D01*
X176775323Y-116078000D01*
X176260065Y-116180492D01*
X175774702Y-116381536D01*
X175383000Y-116643263D01*
X175383000Y-101008465D01*
X175387281Y-100964999D01*
X175383000Y-100921533D01*
X175383000Y-100921523D01*
X175370195Y-100791510D01*
X175319589Y-100624687D01*
X175237411Y-100470941D01*
X175207431Y-100434410D01*
X175154532Y-100369953D01*
X175154530Y-100369951D01*
X175126817Y-100336183D01*
X175093050Y-100308471D01*
X173884532Y-99099954D01*
X173856817Y-99066183D01*
X173722059Y-98955589D01*
X173568313Y-98873411D01*
X173401490Y-98822805D01*
X173271477Y-98810000D01*
X173271469Y-98810000D01*
X173228000Y-98805719D01*
X173184531Y-98810000D01*
X172063059Y-98810000D01*
X171957987Y-98652748D01*
X171730252Y-98425013D01*
X171621400Y-98352280D01*
X171643808Y-98290413D01*
X170688000Y-97334605D01*
X169732192Y-98290413D01*
X169754600Y-98352280D01*
X169645748Y-98425013D01*
X169418013Y-98652748D01*
X169239082Y-98920537D01*
X169115832Y-99218088D01*
X169053000Y-99533967D01*
X169053000Y-99856033D01*
X169115832Y-100171912D01*
X169239082Y-100469463D01*
X169418013Y-100737252D01*
X169645748Y-100964987D01*
X169645767Y-100965000D01*
X169645748Y-100965013D01*
X169418013Y-101192748D01*
X169239082Y-101460537D01*
X169115832Y-101758088D01*
X169053000Y-102073967D01*
X169053000Y-102396033D01*
X169115832Y-102711912D01*
X169239082Y-103009463D01*
X169418013Y-103277252D01*
X169645748Y-103504987D01*
X169645767Y-103505000D01*
X169645748Y-103505013D01*
X169418013Y-103732748D01*
X169239082Y-104000537D01*
X169115832Y-104298088D01*
X169053000Y-104613967D01*
X169053000Y-104936033D01*
X169115832Y-105251912D01*
X169239082Y-105549463D01*
X169418013Y-105817252D01*
X169645748Y-106044987D01*
X169913537Y-106223918D01*
X170211088Y-106347168D01*
X170526967Y-106410000D01*
X170849033Y-106410000D01*
X171034525Y-106373104D01*
X171073000Y-106411579D01*
X171073001Y-122460246D01*
X170893203Y-122607803D01*
X170705931Y-122835995D01*
X170688000Y-122869541D01*
X170670069Y-122835994D01*
X170482797Y-122607803D01*
X170254605Y-122420531D01*
X169994263Y-122281375D01*
X169711776Y-122195684D01*
X169418000Y-122166749D01*
X169124223Y-122195684D01*
X168841736Y-122281375D01*
X168581394Y-122420531D01*
X168353203Y-122607803D01*
X168165931Y-122835995D01*
X168148000Y-122869541D01*
X168130069Y-122835994D01*
X167942797Y-122607803D01*
X167714605Y-122420531D01*
X167454263Y-122281375D01*
X167171776Y-122195684D01*
X166878000Y-122166749D01*
X166584223Y-122195684D01*
X166301736Y-122281375D01*
X166041394Y-122420531D01*
X165813203Y-122607803D01*
X165625931Y-122835995D01*
X165608000Y-122869541D01*
X165590069Y-122835994D01*
X165402797Y-122607803D01*
X165174605Y-122420531D01*
X164914263Y-122281375D01*
X164631776Y-122195684D01*
X164371007Y-122170000D01*
X165564531Y-122170000D01*
X165608000Y-122174281D01*
X165651469Y-122170000D01*
X165651477Y-122170000D01*
X165781490Y-122157195D01*
X165948313Y-122106589D01*
X166102059Y-122024411D01*
X166236817Y-121913817D01*
X166264534Y-121880044D01*
X168743049Y-119401530D01*
X168776817Y-119373817D01*
X168887411Y-119239059D01*
X168969589Y-119085313D01*
X169020195Y-118918490D01*
X169033000Y-118788477D01*
X169033000Y-118788467D01*
X169037281Y-118745001D01*
X169033000Y-118701535D01*
X169033000Y-103548465D01*
X169037281Y-103504999D01*
X169033000Y-103461533D01*
X169033000Y-103461523D01*
X169020195Y-103331510D01*
X168969589Y-103164687D01*
X168887411Y-103010941D01*
X168808450Y-102914727D01*
X168804532Y-102909953D01*
X168804530Y-102909951D01*
X168776817Y-102876183D01*
X168743050Y-102848471D01*
X167534534Y-101639956D01*
X167506817Y-101606183D01*
X167372059Y-101495589D01*
X167218313Y-101413411D01*
X167051490Y-101362805D01*
X166921477Y-101350000D01*
X166921469Y-101350000D01*
X166878000Y-101345719D01*
X166834531Y-101350000D01*
X165472521Y-101350000D01*
X165452637Y-101320241D01*
X165252759Y-101120363D01*
X165017727Y-100963320D01*
X164756574Y-100855147D01*
X164479335Y-100800000D01*
X164196665Y-100800000D01*
X163919426Y-100855147D01*
X163658273Y-100963320D01*
X163423241Y-101120363D01*
X163223363Y-101320241D01*
X163203479Y-101350000D01*
X158990975Y-101350000D01*
X158839013Y-101198038D01*
X158620359Y-101051939D01*
X158377405Y-100951304D01*
X158119486Y-100900000D01*
X157856514Y-100900000D01*
X157598595Y-100951304D01*
X157355641Y-101051939D01*
X157136987Y-101198038D01*
X156951038Y-101383987D01*
X156804939Y-101602641D01*
X156704304Y-101845595D01*
X156653000Y-102103514D01*
X156653000Y-102366486D01*
X156704304Y-102624405D01*
X156804939Y-102867359D01*
X156951038Y-103086013D01*
X157136987Y-103271962D01*
X157355641Y-103418061D01*
X157598595Y-103518696D01*
X157856514Y-103570000D01*
X158119486Y-103570000D01*
X158377405Y-103518696D01*
X158620359Y-103418061D01*
X158839013Y-103271962D01*
X158990975Y-103120000D01*
X163203479Y-103120000D01*
X163223363Y-103149759D01*
X163423241Y-103349637D01*
X163658273Y-103506680D01*
X163919426Y-103614853D01*
X164196665Y-103670000D01*
X164479335Y-103670000D01*
X164756574Y-103614853D01*
X165017727Y-103506680D01*
X165252759Y-103349637D01*
X165452637Y-103149759D01*
X165472521Y-103120000D01*
X166511422Y-103120000D01*
X167263000Y-103871579D01*
X167263001Y-118378420D01*
X165241422Y-120400000D01*
X162865469Y-120400000D01*
X162822000Y-120395719D01*
X162778531Y-120400000D01*
X162778523Y-120400000D01*
X162648510Y-120412805D01*
X162481686Y-120463411D01*
X162327941Y-120545589D01*
X162226953Y-120628468D01*
X162226951Y-120628470D01*
X162193183Y-120656183D01*
X162165470Y-120689951D01*
X161202956Y-121652466D01*
X161169183Y-121680183D01*
X161058589Y-121814942D01*
X160976411Y-121968688D01*
X160941157Y-122084904D01*
X160925805Y-122135510D01*
X160925704Y-122136537D01*
X160913000Y-122265524D01*
X160913000Y-122265531D01*
X160908719Y-122309000D01*
X160913000Y-122352470D01*
X160913000Y-122460247D01*
X160733203Y-122607803D01*
X160545931Y-122835995D01*
X160406775Y-123096337D01*
X160321084Y-123378824D01*
X160299400Y-123598982D01*
X160299400Y-124051019D01*
X160321084Y-124271177D01*
X160406775Y-124553664D01*
X160545931Y-124814006D01*
X160661634Y-124954990D01*
X157854366Y-124954990D01*
X157970069Y-124814006D01*
X158109225Y-124553663D01*
X158194916Y-124271176D01*
X158216600Y-124051018D01*
X158216600Y-123598981D01*
X158194916Y-123378823D01*
X158109225Y-123096336D01*
X157970069Y-122835994D01*
X157782797Y-122607803D01*
X157554605Y-122420531D01*
X157294263Y-122281375D01*
X157011776Y-122195684D01*
X156718000Y-122166749D01*
X156424223Y-122195684D01*
X156141736Y-122281375D01*
X155881394Y-122420531D01*
X155653203Y-122607803D01*
X155465931Y-122835995D01*
X155444576Y-122875947D01*
X155296486Y-122673271D01*
X155080035Y-122474267D01*
X154828919Y-122321314D01*
X154552789Y-122220291D01*
X154537026Y-122217642D01*
X154305000Y-122338783D01*
X154305000Y-123698000D01*
X154325000Y-123698000D01*
X154325000Y-123952000D01*
X154305000Y-123952000D01*
X154305000Y-123972000D01*
X154051000Y-123972000D01*
X154051000Y-123952000D01*
X151765000Y-123952000D01*
X151765000Y-123972000D01*
X151511000Y-123972000D01*
X151511000Y-123952000D01*
X151491000Y-123952000D01*
X151491000Y-123698000D01*
X151511000Y-123698000D01*
X151511000Y-122338783D01*
X151765000Y-122338783D01*
X151765000Y-123698000D01*
X154051000Y-123698000D01*
X154051000Y-122338783D01*
X153818974Y-122217642D01*
X153803211Y-122220291D01*
X153527081Y-122321314D01*
X153275965Y-122474267D01*
X153059514Y-122673271D01*
X152908000Y-122880633D01*
X152756486Y-122673271D01*
X152540035Y-122474267D01*
X152288919Y-122321314D01*
X152012789Y-122220291D01*
X151997026Y-122217642D01*
X151765000Y-122338783D01*
X151511000Y-122338783D01*
X151278974Y-122217642D01*
X151263211Y-122220291D01*
X150987081Y-122321314D01*
X150735965Y-122474267D01*
X150519514Y-122673271D01*
X150371424Y-122875947D01*
X150350069Y-122835994D01*
X150162797Y-122607803D01*
X149983000Y-122460248D01*
X149983000Y-121651578D01*
X150734579Y-120900000D01*
X154134531Y-120900000D01*
X154178000Y-120904281D01*
X154221469Y-120900000D01*
X154221477Y-120900000D01*
X154351490Y-120887195D01*
X154518313Y-120836589D01*
X154672059Y-120754411D01*
X154806817Y-120643817D01*
X154834534Y-120610044D01*
X156043049Y-119401530D01*
X156076817Y-119373817D01*
X156187411Y-119239059D01*
X156269589Y-119085313D01*
X156320195Y-118918490D01*
X156333000Y-118788477D01*
X156333000Y-118788467D01*
X156337281Y-118745001D01*
X156333000Y-118701535D01*
X156333000Y-110084040D01*
X162946091Y-110084040D01*
X163040930Y-110348881D01*
X163185615Y-110590131D01*
X163374586Y-110798519D01*
X163600580Y-110966037D01*
X163854913Y-111086246D01*
X163988961Y-111126904D01*
X164211000Y-111004915D01*
X164211000Y-109862000D01*
X164465000Y-109862000D01*
X164465000Y-111004915D01*
X164687039Y-111126904D01*
X164821087Y-111086246D01*
X165075420Y-110966037D01*
X165301414Y-110798519D01*
X165490385Y-110590131D01*
X165635070Y-110348881D01*
X165729909Y-110084040D01*
X165608624Y-109862000D01*
X164465000Y-109862000D01*
X164211000Y-109862000D01*
X163067376Y-109862000D01*
X162946091Y-110084040D01*
X156333000Y-110084040D01*
X156333000Y-109385960D01*
X162946091Y-109385960D01*
X163067376Y-109608000D01*
X164211000Y-109608000D01*
X164211000Y-108465085D01*
X164465000Y-108465085D01*
X164465000Y-109608000D01*
X165608624Y-109608000D01*
X165729909Y-109385960D01*
X165635070Y-109121119D01*
X165490385Y-108879869D01*
X165301414Y-108671481D01*
X165075420Y-108503963D01*
X164821087Y-108383754D01*
X164687039Y-108343096D01*
X164465000Y-108465085D01*
X164211000Y-108465085D01*
X163988961Y-108343096D01*
X163854913Y-108383754D01*
X163600580Y-108503963D01*
X163374586Y-108671481D01*
X163185615Y-108879869D01*
X163040930Y-109121119D01*
X162946091Y-109385960D01*
X156333000Y-109385960D01*
X156333000Y-102278465D01*
X156337281Y-102234999D01*
X156333000Y-102191533D01*
X156333000Y-102191523D01*
X156320195Y-102061510D01*
X156269589Y-101894687D01*
X156187411Y-101740941D01*
X156076817Y-101606183D01*
X156043050Y-101578471D01*
X154834532Y-100369954D01*
X154806817Y-100336183D01*
X154672059Y-100225589D01*
X154518313Y-100143411D01*
X154351490Y-100092805D01*
X154221477Y-100080000D01*
X154221469Y-100080000D01*
X154178000Y-100075719D01*
X154134531Y-100080000D01*
X148144579Y-100080000D01*
X148106104Y-100041525D01*
X148143000Y-99856033D01*
X148143000Y-99533967D01*
X148106104Y-99348475D01*
X148144579Y-99310000D01*
X149054524Y-99310000D01*
X149098000Y-99314282D01*
X149141477Y-99310000D01*
X154014531Y-99310000D01*
X154058000Y-99314281D01*
X154101469Y-99310000D01*
X154101477Y-99310000D01*
X154231490Y-99297195D01*
X154398313Y-99246589D01*
X154552059Y-99164411D01*
X154686817Y-99053817D01*
X154714534Y-99020044D01*
X155274704Y-98459875D01*
X155377508Y-98470000D01*
X155518492Y-98470000D01*
X155729309Y-98449236D01*
X155999808Y-98367182D01*
X156249101Y-98233932D01*
X156467608Y-98054608D01*
X156646932Y-97836101D01*
X156780182Y-97586808D01*
X156862236Y-97316309D01*
X156871958Y-97217595D01*
X169046282Y-97217595D01*
X169090039Y-97536675D01*
X169195205Y-97841088D01*
X169288186Y-98015044D01*
X169552587Y-98110808D01*
X170508395Y-97155000D01*
X170867605Y-97155000D01*
X171823413Y-98110808D01*
X172087814Y-98015044D01*
X172228704Y-97725429D01*
X172310384Y-97413892D01*
X172329718Y-97092405D01*
X172285961Y-96773325D01*
X172180795Y-96468912D01*
X172087814Y-96294956D01*
X171823413Y-96199192D01*
X170867605Y-97155000D01*
X170508395Y-97155000D01*
X169552587Y-96199192D01*
X169288186Y-96294956D01*
X169147296Y-96584571D01*
X169065616Y-96896108D01*
X169046282Y-97217595D01*
X156871958Y-97217595D01*
X156889943Y-97035000D01*
X156862236Y-96753691D01*
X156780182Y-96483192D01*
X156646932Y-96233899D01*
X156471051Y-96019587D01*
X169732192Y-96019587D01*
X170688000Y-96975395D01*
X171643808Y-96019587D01*
X171548044Y-95755186D01*
X171258429Y-95614296D01*
X170946892Y-95532616D01*
X170625405Y-95513282D01*
X170306325Y-95557039D01*
X170001912Y-95662205D01*
X169827956Y-95755186D01*
X169732192Y-96019587D01*
X156471051Y-96019587D01*
X156467608Y-96015392D01*
X156249101Y-95836068D01*
X155999808Y-95702818D01*
X155729309Y-95620764D01*
X155518492Y-95600000D01*
X155377508Y-95600000D01*
X155166691Y-95620764D01*
X154896192Y-95702818D01*
X154646899Y-95836068D01*
X154428392Y-96015392D01*
X154249068Y-96233899D01*
X154115818Y-96483192D01*
X154033764Y-96753691D01*
X154006057Y-97035000D01*
X154023125Y-97208296D01*
X153691422Y-97540000D01*
X149983000Y-97540000D01*
X149983000Y-90527702D01*
X154634903Y-90527702D01*
X154706486Y-90771671D01*
X154961996Y-90892571D01*
X155236184Y-90961300D01*
X155518512Y-90975217D01*
X155798130Y-90933787D01*
X156064292Y-90838603D01*
X156189514Y-90771671D01*
X156261097Y-90527702D01*
X155448000Y-89714605D01*
X154634903Y-90527702D01*
X149983000Y-90527702D01*
X149983000Y-89901578D01*
X150279066Y-89605512D01*
X154007783Y-89605512D01*
X154049213Y-89885130D01*
X154144397Y-90151292D01*
X154211329Y-90276514D01*
X154455298Y-90348097D01*
X155268395Y-89535000D01*
X155627605Y-89535000D01*
X156440702Y-90348097D01*
X156684671Y-90276514D01*
X156805571Y-90021004D01*
X156874300Y-89746816D01*
X156888217Y-89464488D01*
X156846787Y-89184870D01*
X156751603Y-88918708D01*
X156684671Y-88793486D01*
X156440702Y-88721903D01*
X155627605Y-89535000D01*
X155268395Y-89535000D01*
X154455298Y-88721903D01*
X154211329Y-88793486D01*
X154090429Y-89048996D01*
X154021700Y-89323184D01*
X154007783Y-89605512D01*
X150279066Y-89605512D01*
X150963049Y-88921530D01*
X150996817Y-88893817D01*
X151107411Y-88759059D01*
X151189589Y-88605313D01*
X151208704Y-88542298D01*
X154634903Y-88542298D01*
X155448000Y-89355395D01*
X156261097Y-88542298D01*
X156189514Y-88298329D01*
X155934004Y-88177429D01*
X155659816Y-88108700D01*
X155377488Y-88094783D01*
X155097870Y-88136213D01*
X154831708Y-88231397D01*
X154706486Y-88298329D01*
X154634903Y-88542298D01*
X151208704Y-88542298D01*
X151240195Y-88438490D01*
X151253000Y-88308477D01*
X151253000Y-88308467D01*
X151257281Y-88265001D01*
X151253000Y-88221535D01*
X151253000Y-85830059D01*
X151410252Y-85724987D01*
X151637987Y-85497252D01*
X151816918Y-85229463D01*
X151940168Y-84931912D01*
X152003000Y-84616033D01*
X152003000Y-84293967D01*
X151940168Y-83978088D01*
X151816918Y-83680537D01*
X151637987Y-83412748D01*
X151410252Y-83185013D01*
X151142463Y-83006082D01*
X150844912Y-82882832D01*
X150529033Y-82820000D01*
X150206967Y-82820000D01*
X149891088Y-82882832D01*
X149593537Y-83006082D01*
X149325748Y-83185013D01*
X149098013Y-83412748D01*
X149025280Y-83521600D01*
X148963413Y-83499192D01*
X148007605Y-84455000D01*
X148963413Y-85410808D01*
X149025280Y-85388400D01*
X149098013Y-85497252D01*
X149325748Y-85724987D01*
X149483000Y-85830060D01*
X149483001Y-87898420D01*
X148731422Y-88650000D01*
X138993059Y-88650000D01*
X138887987Y-88492748D01*
X138660252Y-88265013D01*
X138392463Y-88086082D01*
X138094912Y-87962832D01*
X137779033Y-87900000D01*
X137456967Y-87900000D01*
X137141088Y-87962832D01*
X136843537Y-88086082D01*
X136575748Y-88265013D01*
X136348013Y-88492748D01*
X136169082Y-88760537D01*
X136045832Y-89058088D01*
X135983000Y-89373967D01*
X135983000Y-89696033D01*
X136045832Y-90011912D01*
X136169082Y-90309463D01*
X136348013Y-90577252D01*
X136575748Y-90804987D01*
X136843537Y-90983918D01*
X137141088Y-91107168D01*
X137456967Y-91170000D01*
X137779033Y-91170000D01*
X138094912Y-91107168D01*
X138392463Y-90983918D01*
X138660252Y-90804987D01*
X138887987Y-90577252D01*
X138993059Y-90420000D01*
X148213000Y-90420000D01*
X148213001Y-97111514D01*
X148213000Y-97111524D01*
X148213000Y-97540000D01*
X148098450Y-97540000D01*
X148143000Y-97316033D01*
X148143000Y-96993967D01*
X148080168Y-96678088D01*
X147956918Y-96380537D01*
X147777987Y-96112748D01*
X147550252Y-95885013D01*
X147282463Y-95706082D01*
X146984912Y-95582832D01*
X146669033Y-95520000D01*
X146346967Y-95520000D01*
X146031088Y-95582832D01*
X145733537Y-95706082D01*
X145465748Y-95885013D01*
X145238013Y-96112748D01*
X145059082Y-96380537D01*
X144935832Y-96678088D01*
X144873000Y-96993967D01*
X144873000Y-97316033D01*
X144935832Y-97631912D01*
X145059082Y-97929463D01*
X145238013Y-98197252D01*
X145465748Y-98424987D01*
X145465767Y-98425000D01*
X145465748Y-98425013D01*
X145238013Y-98652748D01*
X145059082Y-98920537D01*
X144935832Y-99218088D01*
X144873000Y-99533967D01*
X144873000Y-99856033D01*
X144935832Y-100171912D01*
X145059082Y-100469463D01*
X145238013Y-100737252D01*
X145465748Y-100964987D01*
X145465767Y-100965000D01*
X145465748Y-100965013D01*
X145238013Y-101192748D01*
X145059082Y-101460537D01*
X144935832Y-101758088D01*
X144873000Y-102073967D01*
X144873000Y-102396033D01*
X144935832Y-102711912D01*
X145059082Y-103009463D01*
X145238013Y-103277252D01*
X145465748Y-103504987D01*
X145465767Y-103505000D01*
X145465748Y-103505013D01*
X145238013Y-103732748D01*
X145059082Y-104000537D01*
X144935832Y-104298088D01*
X144873000Y-104613967D01*
X144873000Y-104936033D01*
X144935832Y-105251912D01*
X145059082Y-105549463D01*
X145238013Y-105817252D01*
X145465748Y-106044987D01*
X145733537Y-106223918D01*
X146031088Y-106347168D01*
X146346967Y-106410000D01*
X146669033Y-106410000D01*
X146984912Y-106347168D01*
X147282463Y-106223918D01*
X147550252Y-106044987D01*
X147777987Y-105817252D01*
X147956918Y-105549463D01*
X148080168Y-105251912D01*
X148120512Y-105049090D01*
X148213001Y-105141580D01*
X148213000Y-112186080D01*
X147281040Y-114050000D01*
X134912521Y-114050000D01*
X134892637Y-114020241D01*
X134692759Y-113820363D01*
X134457727Y-113663320D01*
X134196574Y-113555147D01*
X133919335Y-113500000D01*
X133636665Y-113500000D01*
X133359426Y-113555147D01*
X133098273Y-113663320D01*
X132863241Y-113820363D01*
X132663363Y-114020241D01*
X132506320Y-114255273D01*
X132398147Y-114516426D01*
X132343000Y-114793665D01*
X132343000Y-115076335D01*
X132398147Y-115353574D01*
X132506320Y-115614727D01*
X132663363Y-115849759D01*
X132863241Y-116049637D01*
X132973001Y-116122976D01*
X132973000Y-120284287D01*
X132909445Y-120336445D01*
X132742618Y-120539725D01*
X132618653Y-120771646D01*
X132542317Y-121023294D01*
X132516541Y-121285000D01*
X132542317Y-121546706D01*
X132618653Y-121798354D01*
X132742618Y-122030275D01*
X132909445Y-122233555D01*
X133112725Y-122400382D01*
X133344646Y-122524347D01*
X133596294Y-122600683D01*
X133792421Y-122620000D01*
X133923579Y-122620000D01*
X134119706Y-122600683D01*
X134371354Y-122524347D01*
X134603275Y-122400382D01*
X134806555Y-122233555D01*
X134973382Y-122030275D01*
X135097347Y-121798354D01*
X135173683Y-121546706D01*
X135199459Y-121285000D01*
X135173683Y-121023294D01*
X135097347Y-120771646D01*
X134973382Y-120539725D01*
X134806555Y-120336445D01*
X134743000Y-120284287D01*
X134743000Y-115999396D01*
X134892637Y-115849759D01*
X134912521Y-115820000D01*
X147752989Y-115820000D01*
X147764960Y-115822044D01*
X147840028Y-115820000D01*
X147871477Y-115820000D01*
X147883493Y-115818816D01*
X147939225Y-115817299D01*
X147970037Y-115810293D01*
X148001490Y-115807195D01*
X148054856Y-115791006D01*
X148109215Y-115778646D01*
X148138068Y-115765764D01*
X148168313Y-115756589D01*
X148217489Y-115730304D01*
X148268399Y-115707574D01*
X148294183Y-115689311D01*
X148322059Y-115674411D01*
X148365176Y-115639026D01*
X148410658Y-115606810D01*
X148432380Y-115583872D01*
X148456817Y-115563817D01*
X148492198Y-115520706D01*
X148530527Y-115480231D01*
X148547359Y-115453493D01*
X148567411Y-115429059D01*
X148593697Y-115379881D01*
X148600124Y-115369671D01*
X148614177Y-115341564D01*
X148649589Y-115275313D01*
X148653115Y-115263688D01*
X149884185Y-112801550D01*
X149919589Y-112735313D01*
X149935774Y-112681958D01*
X149955701Y-112629884D01*
X149961019Y-112598739D01*
X149970195Y-112568490D01*
X149975662Y-112512981D01*
X149985043Y-112458041D01*
X149983000Y-112382994D01*
X149983000Y-104818465D01*
X149987281Y-104774999D01*
X149983000Y-104731533D01*
X149983000Y-104731523D01*
X149970195Y-104601510D01*
X149919589Y-104434687D01*
X149837411Y-104280941D01*
X149726817Y-104146183D01*
X149693049Y-104118470D01*
X148694579Y-103120000D01*
X151907287Y-103120000D01*
X151959445Y-103183555D01*
X152162725Y-103350382D01*
X152394646Y-103474347D01*
X152646294Y-103550683D01*
X152842421Y-103570000D01*
X152973579Y-103570000D01*
X153169706Y-103550683D01*
X153421354Y-103474347D01*
X153653275Y-103350382D01*
X153856555Y-103183555D01*
X154023382Y-102980275D01*
X154147347Y-102748354D01*
X154223683Y-102496706D01*
X154244704Y-102283282D01*
X154563000Y-102601579D01*
X154563001Y-118378420D01*
X153811422Y-119130000D01*
X150411465Y-119130000D01*
X150367999Y-119125719D01*
X150324533Y-119130000D01*
X150324523Y-119130000D01*
X150194510Y-119142805D01*
X150027687Y-119193411D01*
X149873941Y-119275589D01*
X149873939Y-119275590D01*
X149873940Y-119275590D01*
X149772953Y-119358468D01*
X149772951Y-119358470D01*
X149739183Y-119386183D01*
X149711470Y-119419951D01*
X148502956Y-120628466D01*
X148469183Y-120656183D01*
X148358589Y-120790942D01*
X148276411Y-120944688D01*
X148255998Y-121011981D01*
X148225806Y-121111509D01*
X148225805Y-121111511D01*
X148213000Y-121241524D01*
X148213000Y-121241531D01*
X148208719Y-121285000D01*
X148213000Y-121328469D01*
X148213000Y-122460247D01*
X148033203Y-122607803D01*
X147845931Y-122835995D01*
X147828000Y-122869541D01*
X147810069Y-122835994D01*
X147622797Y-122607803D01*
X147394605Y-122420531D01*
X147134263Y-122281375D01*
X146851776Y-122195684D01*
X146558000Y-122166749D01*
X146264223Y-122195684D01*
X145981736Y-122281375D01*
X145721394Y-122420531D01*
X145493203Y-122607803D01*
X145305931Y-122835995D01*
X145288000Y-122869541D01*
X145270069Y-122835994D01*
X145082797Y-122607803D01*
X144854605Y-122420531D01*
X144594263Y-122281375D01*
X144311776Y-122195684D01*
X144018000Y-122166749D01*
X143724223Y-122195684D01*
X143441736Y-122281375D01*
X143181394Y-122420531D01*
X142953203Y-122607803D01*
X142765931Y-122835995D01*
X142748000Y-122869541D01*
X142730069Y-122835994D01*
X142542797Y-122607803D01*
X142314605Y-122420531D01*
X142054263Y-122281375D01*
X141771776Y-122195684D01*
X141478000Y-122166749D01*
X141184223Y-122195684D01*
X140901736Y-122281375D01*
X140641394Y-122420531D01*
X140413203Y-122607803D01*
X140225931Y-122835995D01*
X140208000Y-122869541D01*
X140190069Y-122835994D01*
X140002797Y-122607803D01*
X139774605Y-122420531D01*
X139514263Y-122281375D01*
X139231776Y-122195684D01*
X138938000Y-122166749D01*
X138644223Y-122195684D01*
X138361736Y-122281375D01*
X138101394Y-122420531D01*
X137873203Y-122607803D01*
X137685931Y-122835995D01*
X137546775Y-123096337D01*
X137461084Y-123378824D01*
X137439400Y-123598982D01*
X137439400Y-124051019D01*
X137461084Y-124271177D01*
X137546775Y-124553664D01*
X137685931Y-124814006D01*
X137873203Y-125042197D01*
X138101395Y-125229469D01*
X138361737Y-125368625D01*
X138644224Y-125454316D01*
X138938000Y-125483251D01*
X139231777Y-125454316D01*
X139514264Y-125368625D01*
X139774606Y-125229469D01*
X140002797Y-125042197D01*
X140190069Y-124814006D01*
X140208000Y-124780459D01*
X140225931Y-124814006D01*
X140413203Y-125042197D01*
X140641395Y-125229469D01*
X140901737Y-125368625D01*
X141184224Y-125454316D01*
X141478000Y-125483251D01*
X141771777Y-125454316D01*
X142054264Y-125368625D01*
X142314606Y-125229469D01*
X142542797Y-125042197D01*
X142730069Y-124814006D01*
X142748000Y-124780459D01*
X142765931Y-124814006D01*
X142953203Y-125042197D01*
X143181395Y-125229469D01*
X143441737Y-125368625D01*
X143724224Y-125454316D01*
X144018000Y-125483251D01*
X144311777Y-125454316D01*
X144594264Y-125368625D01*
X144854606Y-125229469D01*
X145082797Y-125042197D01*
X145270069Y-124814006D01*
X145288000Y-124780459D01*
X145305931Y-124814006D01*
X145493203Y-125042197D01*
X145721395Y-125229469D01*
X145981737Y-125368625D01*
X146264224Y-125454316D01*
X146558000Y-125483251D01*
X146851777Y-125454316D01*
X147134264Y-125368625D01*
X147394606Y-125229469D01*
X147622797Y-125042197D01*
X147810069Y-124814006D01*
X147828000Y-124780459D01*
X147845931Y-124814006D01*
X148033203Y-125042197D01*
X148261395Y-125229469D01*
X148521737Y-125368625D01*
X148804224Y-125454316D01*
X149098000Y-125483251D01*
X149329474Y-125460452D01*
X149524021Y-125655000D01*
X126909707Y-125655000D01*
X127039594Y-125525113D01*
X127331464Y-125088298D01*
X127532508Y-124602935D01*
X127635000Y-124087677D01*
X127635000Y-123562323D01*
X127532508Y-123047065D01*
X127331464Y-122561702D01*
X127069737Y-122170000D01*
X127775025Y-122170000D01*
X127926987Y-122321962D01*
X128145641Y-122468061D01*
X128388595Y-122568696D01*
X128646514Y-122620000D01*
X128909486Y-122620000D01*
X129167405Y-122568696D01*
X129410359Y-122468061D01*
X129629013Y-122321962D01*
X129814962Y-122136013D01*
X129961061Y-121917359D01*
X130061696Y-121674405D01*
X130113000Y-121416486D01*
X130113000Y-121153514D01*
X130061696Y-120895595D01*
X129961061Y-120652641D01*
X129814962Y-120433987D01*
X129629013Y-120248038D01*
X129410359Y-120101939D01*
X129167405Y-120001304D01*
X128909486Y-119950000D01*
X128646514Y-119950000D01*
X128388595Y-120001304D01*
X128145641Y-120101939D01*
X127926987Y-120248038D01*
X127775025Y-120400000D01*
X126604579Y-120400000D01*
X125853000Y-119648422D01*
X125853000Y-116571578D01*
X126604579Y-115820000D01*
X127643479Y-115820000D01*
X127663363Y-115849759D01*
X127863241Y-116049637D01*
X128098273Y-116206680D01*
X128359426Y-116314853D01*
X128636665Y-116370000D01*
X128919335Y-116370000D01*
X129196574Y-116314853D01*
X129457727Y-116206680D01*
X129692759Y-116049637D01*
X129892637Y-115849759D01*
X130049680Y-115614727D01*
X130157853Y-115353574D01*
X130213000Y-115076335D01*
X130213000Y-114793665D01*
X130157853Y-114516426D01*
X130049680Y-114255273D01*
X129892637Y-114020241D01*
X129692759Y-113820363D01*
X129663000Y-113800479D01*
X129663000Y-111491578D01*
X131234579Y-109920000D01*
X131449486Y-109920000D01*
X131707405Y-109868696D01*
X131950359Y-109768061D01*
X132169013Y-109621962D01*
X132320975Y-109470000D01*
X141434531Y-109470000D01*
X141478000Y-109474281D01*
X141521469Y-109470000D01*
X141521477Y-109470000D01*
X141651490Y-109457195D01*
X141818313Y-109406589D01*
X141972059Y-109324411D01*
X142106817Y-109213817D01*
X142134534Y-109180044D01*
X143343049Y-107971530D01*
X143376817Y-107943817D01*
X143487411Y-107809059D01*
X143569589Y-107655313D01*
X143620195Y-107488490D01*
X143633000Y-107358477D01*
X143633000Y-107358467D01*
X143637281Y-107315001D01*
X143633000Y-107271535D01*
X143633000Y-101008465D01*
X143637281Y-100964999D01*
X143633000Y-100921533D01*
X143633000Y-100921523D01*
X143620195Y-100791510D01*
X143569589Y-100624687D01*
X143487411Y-100470941D01*
X143457431Y-100434410D01*
X143404532Y-100369953D01*
X143404530Y-100369951D01*
X143376817Y-100336183D01*
X143343050Y-100308471D01*
X142134532Y-99099954D01*
X142106817Y-99066183D01*
X141972059Y-98955589D01*
X141818313Y-98873411D01*
X141651490Y-98822805D01*
X141521477Y-98810000D01*
X141521469Y-98810000D01*
X141478000Y-98805719D01*
X141434531Y-98810000D01*
X140363059Y-98810000D01*
X140296370Y-98710191D01*
X140342494Y-98685537D01*
X140439185Y-98606185D01*
X140518537Y-98509494D01*
X140577502Y-98399180D01*
X140613812Y-98279482D01*
X140626072Y-98155000D01*
X140626072Y-96155000D01*
X140613812Y-96030518D01*
X140577502Y-95910820D01*
X140518537Y-95800506D01*
X140439185Y-95703815D01*
X140342494Y-95624463D01*
X140232180Y-95565498D01*
X140112482Y-95529188D01*
X139988000Y-95516928D01*
X137988000Y-95516928D01*
X137863518Y-95529188D01*
X137743820Y-95565498D01*
X137633506Y-95624463D01*
X137536815Y-95703815D01*
X137457463Y-95800506D01*
X137398498Y-95910820D01*
X137362188Y-96030518D01*
X137349928Y-96155000D01*
X137349928Y-98155000D01*
X137362188Y-98279482D01*
X137398498Y-98399180D01*
X137457463Y-98509494D01*
X137536815Y-98606185D01*
X137633506Y-98685537D01*
X137679630Y-98710191D01*
X137539082Y-98920537D01*
X137415832Y-99218088D01*
X137353000Y-99533967D01*
X137353000Y-99856033D01*
X137415832Y-100171912D01*
X137539082Y-100469463D01*
X137718013Y-100737252D01*
X137945748Y-100964987D01*
X137945767Y-100965000D01*
X137945748Y-100965013D01*
X137718013Y-101192748D01*
X137612941Y-101350000D01*
X135494579Y-101350000D01*
X134514532Y-100369954D01*
X134486817Y-100336183D01*
X134352059Y-100225589D01*
X134198313Y-100143411D01*
X134031490Y-100092805D01*
X133901477Y-100080000D01*
X133901469Y-100080000D01*
X133858000Y-100075719D01*
X133814531Y-100080000D01*
X126281465Y-100080000D01*
X126237999Y-100075719D01*
X126194533Y-100080000D01*
X126194523Y-100080000D01*
X126064510Y-100092805D01*
X125897687Y-100143411D01*
X125743941Y-100225589D01*
X125743939Y-100225590D01*
X125743940Y-100225590D01*
X125642953Y-100308468D01*
X125642951Y-100308470D01*
X125609183Y-100336183D01*
X125581470Y-100369951D01*
X123874439Y-102076983D01*
X123839335Y-102070000D01*
X123556665Y-102070000D01*
X123521561Y-102076983D01*
X123313000Y-101868422D01*
X123313000Y-101331578D01*
X124884579Y-99760000D01*
X125099486Y-99760000D01*
X125357405Y-99708696D01*
X125600359Y-99608061D01*
X125819013Y-99461962D01*
X126004962Y-99276013D01*
X126151061Y-99057359D01*
X126251696Y-98814405D01*
X126262850Y-98758329D01*
X128755284Y-98758329D01*
X128787953Y-98866044D01*
X128898208Y-99103392D01*
X129052649Y-99314670D01*
X129245340Y-99491759D01*
X129468877Y-99627853D01*
X129714670Y-99717722D01*
X129921000Y-99595201D01*
X129921000Y-98552000D01*
X130175000Y-98552000D01*
X130175000Y-99595201D01*
X130381330Y-99717722D01*
X130627123Y-99627853D01*
X130850660Y-99491759D01*
X131043351Y-99314670D01*
X131197792Y-99103392D01*
X131308047Y-98866044D01*
X131340716Y-98758329D01*
X131217374Y-98552000D01*
X130175000Y-98552000D01*
X129921000Y-98552000D01*
X128878626Y-98552000D01*
X128755284Y-98758329D01*
X126262850Y-98758329D01*
X126303000Y-98556486D01*
X126303000Y-98293514D01*
X126262851Y-98091671D01*
X128755284Y-98091671D01*
X128878626Y-98298000D01*
X129921000Y-98298000D01*
X129921000Y-97254799D01*
X130175000Y-97254799D01*
X130175000Y-98298000D01*
X131217374Y-98298000D01*
X131340716Y-98091671D01*
X131308047Y-97983956D01*
X131197792Y-97746608D01*
X131043351Y-97535330D01*
X130850660Y-97358241D01*
X130627123Y-97222147D01*
X130381330Y-97132278D01*
X130175000Y-97254799D01*
X129921000Y-97254799D01*
X129714670Y-97132278D01*
X129468877Y-97222147D01*
X129245340Y-97358241D01*
X129052649Y-97535330D01*
X128898208Y-97746608D01*
X128787953Y-97983956D01*
X128755284Y-98091671D01*
X126262851Y-98091671D01*
X126251696Y-98035595D01*
X126151061Y-97792641D01*
X126004962Y-97573987D01*
X125853000Y-97422025D01*
X125853000Y-95615713D01*
X125916555Y-95563555D01*
X126083382Y-95360275D01*
X126207347Y-95128354D01*
X126283683Y-94876706D01*
X126309459Y-94615000D01*
X126283683Y-94353294D01*
X126207347Y-94101646D01*
X126083382Y-93869725D01*
X125916555Y-93666445D01*
X125713275Y-93499618D01*
X125481354Y-93375653D01*
X125229706Y-93299317D01*
X125033579Y-93280000D01*
X124902421Y-93280000D01*
X124706294Y-93299317D01*
X124454646Y-93375653D01*
X124222725Y-93499618D01*
X124019445Y-93666445D01*
X123852618Y-93869725D01*
X123728653Y-94101646D01*
X123652317Y-94353294D01*
X123626541Y-94615000D01*
X123652317Y-94876706D01*
X123728653Y-95128354D01*
X123852618Y-95360275D01*
X124019445Y-95563555D01*
X124083001Y-95615714D01*
X124083000Y-97422025D01*
X123931038Y-97573987D01*
X123784939Y-97792641D01*
X123684304Y-98035595D01*
X123633000Y-98293514D01*
X123633000Y-98508421D01*
X121832956Y-100308466D01*
X121799183Y-100336183D01*
X121688589Y-100470942D01*
X121606411Y-100624688D01*
X121594840Y-100662832D01*
X121555806Y-100791509D01*
X121555805Y-100791511D01*
X121543000Y-100921524D01*
X121543000Y-100921531D01*
X121538719Y-100965000D01*
X121543000Y-101008470D01*
X121543001Y-102191522D01*
X121538719Y-102235000D01*
X121555805Y-102408490D01*
X121606412Y-102575313D01*
X121688590Y-102729059D01*
X121771468Y-102830046D01*
X121771471Y-102830049D01*
X121799184Y-102863817D01*
X121832951Y-102891529D01*
X122269983Y-103328561D01*
X122263000Y-103363665D01*
X122263000Y-103646335D01*
X122318147Y-103923574D01*
X122426320Y-104184727D01*
X122583363Y-104419759D01*
X122783241Y-104619637D01*
X123018273Y-104776680D01*
X123279426Y-104884853D01*
X123556665Y-104940000D01*
X123839335Y-104940000D01*
X124116574Y-104884853D01*
X124377727Y-104776680D01*
X124612759Y-104619637D01*
X124812637Y-104419759D01*
X124969680Y-104184727D01*
X125077853Y-103923574D01*
X125091684Y-103854039D01*
X129806096Y-103854039D01*
X129846754Y-103988087D01*
X129966963Y-104242420D01*
X130134481Y-104468414D01*
X130342869Y-104657385D01*
X130584119Y-104802070D01*
X130848960Y-104896909D01*
X131071000Y-104775624D01*
X131071000Y-103632000D01*
X131325000Y-103632000D01*
X131325000Y-104775624D01*
X131547040Y-104896909D01*
X131712676Y-104837595D01*
X137346282Y-104837595D01*
X137390039Y-105156675D01*
X137495205Y-105461088D01*
X137588186Y-105635044D01*
X137852587Y-105730808D01*
X138808395Y-104775000D01*
X139167605Y-104775000D01*
X140123413Y-105730808D01*
X140387814Y-105635044D01*
X140528704Y-105345429D01*
X140610384Y-105033892D01*
X140629718Y-104712405D01*
X140585961Y-104393325D01*
X140480795Y-104088912D01*
X140387814Y-103914956D01*
X140123413Y-103819192D01*
X139167605Y-104775000D01*
X138808395Y-104775000D01*
X137852587Y-103819192D01*
X137588186Y-103914956D01*
X137447296Y-104204571D01*
X137365616Y-104516108D01*
X137346282Y-104837595D01*
X131712676Y-104837595D01*
X131811881Y-104802070D01*
X132053131Y-104657385D01*
X132261519Y-104468414D01*
X132429037Y-104242420D01*
X132549246Y-103988087D01*
X132589904Y-103854039D01*
X132467915Y-103632000D01*
X131325000Y-103632000D01*
X131071000Y-103632000D01*
X129928085Y-103632000D01*
X129806096Y-103854039D01*
X125091684Y-103854039D01*
X125133000Y-103646335D01*
X125133000Y-103363665D01*
X125126017Y-103328561D01*
X125298617Y-103155961D01*
X129806096Y-103155961D01*
X129928085Y-103378000D01*
X131071000Y-103378000D01*
X131071000Y-102234376D01*
X131325000Y-102234376D01*
X131325000Y-103378000D01*
X132467915Y-103378000D01*
X132589904Y-103155961D01*
X132549246Y-103021913D01*
X132429037Y-102767580D01*
X132261519Y-102541586D01*
X132053131Y-102352615D01*
X131811881Y-102207930D01*
X131547040Y-102113091D01*
X131325000Y-102234376D01*
X131071000Y-102234376D01*
X130848960Y-102113091D01*
X130584119Y-102207930D01*
X130342869Y-102352615D01*
X130134481Y-102541586D01*
X129966963Y-102767580D01*
X129846754Y-103021913D01*
X129806096Y-103155961D01*
X125298617Y-103155961D01*
X126604579Y-101850000D01*
X133491422Y-101850000D01*
X134471470Y-102830049D01*
X134499183Y-102863817D01*
X134532951Y-102891530D01*
X134532953Y-102891532D01*
X134561216Y-102914727D01*
X134633941Y-102974411D01*
X134787687Y-103056589D01*
X134954510Y-103107195D01*
X135084523Y-103120000D01*
X135084533Y-103120000D01*
X135127999Y-103124281D01*
X135171465Y-103120000D01*
X137612941Y-103120000D01*
X137718013Y-103277252D01*
X137945748Y-103504987D01*
X138054600Y-103577720D01*
X138032192Y-103639587D01*
X138988000Y-104595395D01*
X139943808Y-103639587D01*
X139921400Y-103577720D01*
X140030252Y-103504987D01*
X140257987Y-103277252D01*
X140436918Y-103009463D01*
X140560168Y-102711912D01*
X140623000Y-102396033D01*
X140623000Y-102073967D01*
X140560168Y-101758088D01*
X140436918Y-101460537D01*
X140257987Y-101192748D01*
X140030252Y-100965013D01*
X140030233Y-100965000D01*
X140030252Y-100964987D01*
X140257987Y-100737252D01*
X140363059Y-100580000D01*
X141111422Y-100580000D01*
X141863000Y-101331579D01*
X141863001Y-106948420D01*
X141111422Y-107700000D01*
X132320975Y-107700000D01*
X132169013Y-107548038D01*
X131950359Y-107401939D01*
X131707405Y-107301304D01*
X131449486Y-107250000D01*
X131186514Y-107250000D01*
X130928595Y-107301304D01*
X130685641Y-107401939D01*
X130466987Y-107548038D01*
X130281038Y-107733987D01*
X130134939Y-107952641D01*
X130034304Y-108195595D01*
X129983000Y-108453514D01*
X129983000Y-108668421D01*
X128182951Y-110468471D01*
X128149184Y-110496183D01*
X128121471Y-110529951D01*
X128121468Y-110529954D01*
X128038590Y-110630941D01*
X127956412Y-110784687D01*
X127905805Y-110951510D01*
X127888719Y-111125000D01*
X127893001Y-111168479D01*
X127893000Y-113800479D01*
X127863241Y-113820363D01*
X127663363Y-114020241D01*
X127643479Y-114050000D01*
X126281465Y-114050000D01*
X126237999Y-114045719D01*
X126194533Y-114050000D01*
X126194523Y-114050000D01*
X126064510Y-114062805D01*
X125897687Y-114113411D01*
X125743941Y-114195589D01*
X125743939Y-114195590D01*
X125743940Y-114195590D01*
X125642953Y-114278468D01*
X125642951Y-114278470D01*
X125609183Y-114306183D01*
X125581470Y-114339951D01*
X124372951Y-115548471D01*
X124339184Y-115576183D01*
X124311471Y-115609951D01*
X124311468Y-115609954D01*
X124228590Y-115710941D01*
X124146412Y-115864687D01*
X124095805Y-116031510D01*
X124078719Y-116205000D01*
X124083001Y-116248479D01*
X124083000Y-119971531D01*
X124078719Y-120015000D01*
X124083000Y-120058469D01*
X124083000Y-120058476D01*
X124087281Y-120101939D01*
X124095805Y-120188490D01*
X124111157Y-120239096D01*
X124146411Y-120355312D01*
X124228589Y-120509058D01*
X124339183Y-120643817D01*
X124372954Y-120671532D01*
X124859422Y-121158000D01*
X124705323Y-121158000D01*
X124190065Y-121260492D01*
X123704702Y-121461536D01*
X123267887Y-121753406D01*
X122896406Y-122124887D01*
X122604536Y-122561702D01*
X122403492Y-123047065D01*
X122301000Y-123562323D01*
X122301000Y-124087677D01*
X122403492Y-124602935D01*
X122604536Y-125088298D01*
X122896406Y-125525113D01*
X123026293Y-125655000D01*
X111708000Y-125655000D01*
X111708000Y-108918329D01*
X124945284Y-108918329D01*
X124977953Y-109026044D01*
X125088208Y-109263392D01*
X125242649Y-109474670D01*
X125435340Y-109651759D01*
X125658877Y-109787853D01*
X125904670Y-109877722D01*
X126111000Y-109755201D01*
X126111000Y-108712000D01*
X126365000Y-108712000D01*
X126365000Y-109755201D01*
X126571330Y-109877722D01*
X126817123Y-109787853D01*
X127040660Y-109651759D01*
X127233351Y-109474670D01*
X127387792Y-109263392D01*
X127498047Y-109026044D01*
X127530716Y-108918329D01*
X127407374Y-108712000D01*
X126365000Y-108712000D01*
X126111000Y-108712000D01*
X125068626Y-108712000D01*
X124945284Y-108918329D01*
X111708000Y-108918329D01*
X111708000Y-108251671D01*
X124945284Y-108251671D01*
X125068626Y-108458000D01*
X126111000Y-108458000D01*
X126111000Y-107414799D01*
X126365000Y-107414799D01*
X126365000Y-108458000D01*
X127407374Y-108458000D01*
X127530716Y-108251671D01*
X127498047Y-108143956D01*
X127387792Y-107906608D01*
X127233351Y-107695330D01*
X127040660Y-107518241D01*
X126817123Y-107382147D01*
X126571330Y-107292278D01*
X126365000Y-107414799D01*
X126111000Y-107414799D01*
X125904670Y-107292278D01*
X125658877Y-107382147D01*
X125435340Y-107518241D01*
X125242649Y-107695330D01*
X125088208Y-107906608D01*
X124977953Y-108143956D01*
X124945284Y-108251671D01*
X111708000Y-108251671D01*
X111708000Y-105910413D01*
X138032192Y-105910413D01*
X138127956Y-106174814D01*
X138417571Y-106315704D01*
X138729108Y-106397384D01*
X139050595Y-106416718D01*
X139369675Y-106372961D01*
X139674088Y-106267795D01*
X139848044Y-106174814D01*
X139943808Y-105910413D01*
X138988000Y-104954605D01*
X138032192Y-105910413D01*
X111708000Y-105910413D01*
X111708000Y-73735000D01*
X111748000Y-73735000D01*
X111748000Y-92970000D01*
X111748000Y-92970000D01*
G37*
X111748000Y-92970000D02*
X115568000Y-92970000D01*
X115568000Y-89373967D01*
X128463000Y-89373967D01*
X128463000Y-89696033D01*
X128525832Y-90011912D01*
X128649082Y-90309463D01*
X128828013Y-90577252D01*
X129055748Y-90804987D01*
X129163001Y-90876651D01*
X129163000Y-93612025D01*
X129011038Y-93763987D01*
X128864939Y-93982641D01*
X128764304Y-94225595D01*
X128713000Y-94483514D01*
X128713000Y-94746486D01*
X128764304Y-95004405D01*
X128864939Y-95247359D01*
X129011038Y-95466013D01*
X129196987Y-95651962D01*
X129415641Y-95798061D01*
X129658595Y-95898696D01*
X129916514Y-95950000D01*
X130179486Y-95950000D01*
X130437405Y-95898696D01*
X130680359Y-95798061D01*
X130899013Y-95651962D01*
X131084962Y-95466013D01*
X131231061Y-95247359D01*
X131331696Y-95004405D01*
X131383000Y-94746486D01*
X131383000Y-94483514D01*
X131331696Y-94225595D01*
X131231061Y-93982641D01*
X131084962Y-93763987D01*
X130933000Y-93612025D01*
X130933000Y-90943468D01*
X131140252Y-90804987D01*
X131367987Y-90577252D01*
X131546918Y-90309463D01*
X131670168Y-90011912D01*
X131733000Y-89696033D01*
X131733000Y-89373967D01*
X131670168Y-89058088D01*
X131546918Y-88760537D01*
X131367987Y-88492748D01*
X131140252Y-88265013D01*
X130872463Y-88086082D01*
X130574912Y-87962832D01*
X130259033Y-87900000D01*
X129936967Y-87900000D01*
X129621088Y-87962832D01*
X129323537Y-88086082D01*
X129055748Y-88265013D01*
X128828013Y-88492748D01*
X128649082Y-88760537D01*
X128525832Y-89058088D01*
X128463000Y-89373967D01*
X115568000Y-89373967D01*
X115568000Y-73735000D01*
X124296293Y-73735000D01*
X124166406Y-73864887D01*
X123874536Y-74301702D01*
X123673492Y-74787065D01*
X123571000Y-75302323D01*
X123571000Y-75827677D01*
X123673492Y-76342935D01*
X123874536Y-76828298D01*
X124166406Y-77265113D01*
X124537887Y-77636594D01*
X124974702Y-77928464D01*
X125460065Y-78129508D01*
X125975323Y-78232000D01*
X126500677Y-78232000D01*
X127015935Y-78129508D01*
X127501298Y-77928464D01*
X127938113Y-77636594D01*
X128309594Y-77265113D01*
X128601464Y-76828298D01*
X128657001Y-76694219D01*
X128729203Y-76782197D01*
X128957395Y-76969469D01*
X129217737Y-77108625D01*
X129500224Y-77194316D01*
X129794000Y-77223251D01*
X130087777Y-77194316D01*
X130370264Y-77108625D01*
X130630606Y-76969469D01*
X130858797Y-76782197D01*
X131046069Y-76554006D01*
X131064000Y-76520459D01*
X131081931Y-76554006D01*
X131269203Y-76782197D01*
X131497395Y-76969469D01*
X131757737Y-77108625D01*
X132040224Y-77194316D01*
X132334000Y-77223251D01*
X132627777Y-77194316D01*
X132910264Y-77108625D01*
X133170606Y-76969469D01*
X133398797Y-76782197D01*
X133586069Y-76554006D01*
X133604000Y-76520459D01*
X133621931Y-76554006D01*
X133809203Y-76782197D01*
X134037395Y-76969469D01*
X134297737Y-77108625D01*
X134580224Y-77194316D01*
X134874000Y-77223251D01*
X135167777Y-77194316D01*
X135450264Y-77108625D01*
X135710606Y-76969469D01*
X135938797Y-76782197D01*
X136126069Y-76554006D01*
X136147424Y-76514053D01*
X136295514Y-76716729D01*
X136511965Y-76915733D01*
X136763081Y-77068686D01*
X137039211Y-77169709D01*
X137054974Y-77172358D01*
X137287000Y-77051217D01*
X137287000Y-75692000D01*
X137267000Y-75692000D01*
X137267000Y-75438000D01*
X137287000Y-75438000D01*
X137287000Y-74078783D01*
X137541000Y-74078783D01*
X137541000Y-75438000D01*
X137561000Y-75438000D01*
X137561000Y-75692000D01*
X137541000Y-75692000D01*
X137541000Y-77051217D01*
X137773026Y-77172358D01*
X137788789Y-77169709D01*
X138064919Y-77068686D01*
X138316035Y-76915733D01*
X138532486Y-76716729D01*
X138680576Y-76514053D01*
X138701931Y-76554006D01*
X138889203Y-76782197D01*
X139117395Y-76969469D01*
X139377737Y-77108625D01*
X139660224Y-77194316D01*
X139954000Y-77223251D01*
X140247777Y-77194316D01*
X140530264Y-77108625D01*
X140790606Y-76969469D01*
X141018797Y-76782197D01*
X141206069Y-76554006D01*
X141224000Y-76520459D01*
X141241931Y-76554006D01*
X141429203Y-76782197D01*
X141657395Y-76969469D01*
X141917737Y-77108625D01*
X142200224Y-77194316D01*
X142494000Y-77223251D01*
X142787777Y-77194316D01*
X143070264Y-77108625D01*
X143330606Y-76969469D01*
X143558797Y-76782197D01*
X143746069Y-76554006D01*
X143764000Y-76520459D01*
X143781931Y-76554006D01*
X143969203Y-76782197D01*
X144035124Y-76836297D01*
X142152951Y-78718471D01*
X142119184Y-78746183D01*
X142091471Y-78779951D01*
X142091468Y-78779954D01*
X142008590Y-78880941D01*
X141926412Y-79034687D01*
X141875805Y-79201510D01*
X141858719Y-79375000D01*
X141863001Y-79418479D01*
X141863000Y-83079940D01*
X141705748Y-83185013D01*
X141478013Y-83412748D01*
X141299082Y-83680537D01*
X141175832Y-83978088D01*
X141113000Y-84293967D01*
X141113000Y-84616033D01*
X141175832Y-84931912D01*
X141299082Y-85229463D01*
X141478013Y-85497252D01*
X141705748Y-85724987D01*
X141973537Y-85903918D01*
X142271088Y-86027168D01*
X142586967Y-86090000D01*
X142909033Y-86090000D01*
X143224912Y-86027168D01*
X143522463Y-85903918D01*
X143790252Y-85724987D01*
X144017987Y-85497252D01*
X144018000Y-85497233D01*
X144018013Y-85497252D01*
X144245748Y-85724987D01*
X144513537Y-85903918D01*
X144811088Y-86027168D01*
X145126967Y-86090000D01*
X145449033Y-86090000D01*
X145764912Y-86027168D01*
X146062463Y-85903918D01*
X146330252Y-85724987D01*
X146464826Y-85590413D01*
X146872192Y-85590413D01*
X146967956Y-85854814D01*
X147257571Y-85995704D01*
X147569108Y-86077384D01*
X147890595Y-86096718D01*
X148209675Y-86052961D01*
X148514088Y-85947795D01*
X148688044Y-85854814D01*
X148783808Y-85590413D01*
X147828000Y-84634605D01*
X146872192Y-85590413D01*
X146464826Y-85590413D01*
X146557987Y-85497252D01*
X146630720Y-85388400D01*
X146692587Y-85410808D01*
X147648395Y-84455000D01*
X146692587Y-83499192D01*
X146630720Y-83521600D01*
X146557987Y-83412748D01*
X146464826Y-83319587D01*
X146872192Y-83319587D01*
X147828000Y-84275395D01*
X148783808Y-83319587D01*
X148688044Y-83055186D01*
X148398429Y-82914296D01*
X148086892Y-82832616D01*
X147765405Y-82813282D01*
X147446325Y-82857039D01*
X147141912Y-82962205D01*
X146967956Y-83055186D01*
X146872192Y-83319587D01*
X146464826Y-83319587D01*
X146330252Y-83185013D01*
X146173000Y-83079941D01*
X146173000Y-79741578D01*
X148169050Y-77745529D01*
X148202817Y-77717817D01*
X148313411Y-77583059D01*
X148395589Y-77429313D01*
X148446195Y-77262490D01*
X148459000Y-77132477D01*
X148459000Y-77132467D01*
X148463281Y-77089001D01*
X148459000Y-77045535D01*
X148459000Y-76929753D01*
X148638797Y-76782197D01*
X148826069Y-76554006D01*
X148844000Y-76520459D01*
X148861931Y-76554006D01*
X149049203Y-76782197D01*
X149277395Y-76969469D01*
X149537737Y-77108625D01*
X149820224Y-77194316D01*
X150114000Y-77223251D01*
X150407777Y-77194316D01*
X150690264Y-77108625D01*
X150950606Y-76969469D01*
X151178797Y-76782197D01*
X151366069Y-76554006D01*
X151384000Y-76520459D01*
X151401931Y-76554006D01*
X151589203Y-76782197D01*
X151817395Y-76969469D01*
X152077737Y-77108625D01*
X152360224Y-77194316D01*
X152654000Y-77223251D01*
X152947777Y-77194316D01*
X153230264Y-77108625D01*
X153490606Y-76969469D01*
X153718797Y-76782197D01*
X153906069Y-76554006D01*
X154045225Y-76293663D01*
X154130916Y-76011176D01*
X154152600Y-75791018D01*
X154152600Y-75338982D01*
X155219400Y-75338982D01*
X155219400Y-75791019D01*
X155241084Y-76011177D01*
X155326775Y-76293664D01*
X155465931Y-76554006D01*
X155653203Y-76782197D01*
X155881395Y-76969469D01*
X156141737Y-77108625D01*
X156424224Y-77194316D01*
X156718000Y-77223251D01*
X157011777Y-77194316D01*
X157294264Y-77108625D01*
X157554606Y-76969469D01*
X157782797Y-76782197D01*
X157970069Y-76554006D01*
X157988000Y-76520459D01*
X158005931Y-76554006D01*
X158193203Y-76782197D01*
X158421395Y-76969469D01*
X158681737Y-77108625D01*
X158964224Y-77194316D01*
X159258000Y-77223251D01*
X159551777Y-77194316D01*
X159834264Y-77108625D01*
X160094606Y-76969469D01*
X160322797Y-76782197D01*
X160510069Y-76554006D01*
X160528000Y-76520459D01*
X160545931Y-76554006D01*
X160733203Y-76782197D01*
X160961395Y-76969469D01*
X161221737Y-77108625D01*
X161504224Y-77194316D01*
X161798000Y-77223251D01*
X162091777Y-77194316D01*
X162374264Y-77108625D01*
X162634606Y-76969469D01*
X162862797Y-76782197D01*
X163050069Y-76554006D01*
X163068000Y-76520459D01*
X163085931Y-76554006D01*
X163273203Y-76782197D01*
X163501395Y-76969469D01*
X163761737Y-77108625D01*
X164044224Y-77194316D01*
X164338000Y-77223251D01*
X164631777Y-77194316D01*
X164914264Y-77108625D01*
X165174606Y-76969469D01*
X165402797Y-76782197D01*
X165590069Y-76554006D01*
X165608000Y-76520459D01*
X165625931Y-76554006D01*
X165813203Y-76782197D01*
X166041395Y-76969469D01*
X166301737Y-77108625D01*
X166584224Y-77194316D01*
X166878000Y-77223251D01*
X167171777Y-77194316D01*
X167454264Y-77108625D01*
X167714606Y-76969469D01*
X167942797Y-76782197D01*
X168130069Y-76554006D01*
X168148000Y-76520459D01*
X168165931Y-76554006D01*
X168353203Y-76782197D01*
X168581395Y-76969469D01*
X168841737Y-77108625D01*
X169124224Y-77194316D01*
X169418000Y-77223251D01*
X169711777Y-77194316D01*
X169994264Y-77108625D01*
X170254606Y-76969469D01*
X170482797Y-76782197D01*
X170670069Y-76554006D01*
X170688000Y-76520459D01*
X170705931Y-76554006D01*
X170893203Y-76782197D01*
X171121395Y-76969469D01*
X171381737Y-77108625D01*
X171664224Y-77194316D01*
X171958000Y-77223251D01*
X172251777Y-77194316D01*
X172534264Y-77108625D01*
X172794606Y-76969469D01*
X173022797Y-76782197D01*
X173210069Y-76554006D01*
X173228000Y-76520459D01*
X173245931Y-76554006D01*
X173433203Y-76782197D01*
X173661395Y-76969469D01*
X173921737Y-77108625D01*
X174204224Y-77194316D01*
X174498000Y-77223251D01*
X174791777Y-77194316D01*
X175074264Y-77108625D01*
X175334606Y-76969469D01*
X175562797Y-76782197D01*
X175750069Y-76554006D01*
X175889225Y-76293663D01*
X175974916Y-76011176D01*
X175996600Y-75791018D01*
X175996600Y-75338981D01*
X175974916Y-75118823D01*
X175889225Y-74836336D01*
X175750069Y-74575994D01*
X175562797Y-74347803D01*
X175334605Y-74160531D01*
X175074263Y-74021375D01*
X174791776Y-73935684D01*
X174498000Y-73906749D01*
X174204223Y-73935684D01*
X173921736Y-74021375D01*
X173661394Y-74160531D01*
X173433203Y-74347803D01*
X173245931Y-74575995D01*
X173228000Y-74609541D01*
X173210069Y-74575994D01*
X173022797Y-74347803D01*
X172794605Y-74160531D01*
X172534263Y-74021375D01*
X172251776Y-73935684D01*
X171958000Y-73906749D01*
X171664223Y-73935684D01*
X171381736Y-74021375D01*
X171121394Y-74160531D01*
X170893203Y-74347803D01*
X170705931Y-74575995D01*
X170688000Y-74609541D01*
X170670069Y-74575994D01*
X170482797Y-74347803D01*
X170254605Y-74160531D01*
X169994263Y-74021375D01*
X169711776Y-73935684D01*
X169418000Y-73906749D01*
X169124223Y-73935684D01*
X168841736Y-74021375D01*
X168581394Y-74160531D01*
X168353203Y-74347803D01*
X168165931Y-74575995D01*
X168148000Y-74609541D01*
X168130069Y-74575994D01*
X167942797Y-74347803D01*
X167714605Y-74160531D01*
X167454263Y-74021375D01*
X167171776Y-73935684D01*
X166878000Y-73906749D01*
X166584223Y-73935684D01*
X166301736Y-74021375D01*
X166041394Y-74160531D01*
X165813203Y-74347803D01*
X165625931Y-74575995D01*
X165608000Y-74609541D01*
X165590069Y-74575994D01*
X165402797Y-74347803D01*
X165174605Y-74160531D01*
X164914263Y-74021375D01*
X164631776Y-73935684D01*
X164338000Y-73906749D01*
X164044223Y-73935684D01*
X163761736Y-74021375D01*
X163501394Y-74160531D01*
X163273203Y-74347803D01*
X163085931Y-74575995D01*
X163068000Y-74609541D01*
X163050069Y-74575994D01*
X162862797Y-74347803D01*
X162634605Y-74160531D01*
X162374263Y-74021375D01*
X162091776Y-73935684D01*
X161798000Y-73906749D01*
X161504223Y-73935684D01*
X161221736Y-74021375D01*
X160961394Y-74160531D01*
X160733203Y-74347803D01*
X160545931Y-74575995D01*
X160528000Y-74609541D01*
X160510069Y-74575994D01*
X160322797Y-74347803D01*
X160094605Y-74160531D01*
X159834263Y-74021375D01*
X159551776Y-73935684D01*
X159258000Y-73906749D01*
X158964223Y-73935684D01*
X158681736Y-74021375D01*
X158421394Y-74160531D01*
X158193203Y-74347803D01*
X158005931Y-74575995D01*
X157988000Y-74609541D01*
X157970069Y-74575994D01*
X157782797Y-74347803D01*
X157554605Y-74160531D01*
X157294263Y-74021375D01*
X157011776Y-73935684D01*
X156718000Y-73906749D01*
X156424223Y-73935684D01*
X156141736Y-74021375D01*
X155881394Y-74160531D01*
X155653203Y-74347803D01*
X155465931Y-74575995D01*
X155326775Y-74836337D01*
X155241084Y-75118824D01*
X155219400Y-75338982D01*
X154152600Y-75338982D01*
X154152600Y-75338981D01*
X154130916Y-75118823D01*
X154045225Y-74836336D01*
X153906069Y-74575994D01*
X153718797Y-74347803D01*
X153490605Y-74160531D01*
X153230263Y-74021375D01*
X152947776Y-73935684D01*
X152654000Y-73906749D01*
X152360223Y-73935684D01*
X152077736Y-74021375D01*
X151817394Y-74160531D01*
X151589203Y-74347803D01*
X151401931Y-74575995D01*
X151384000Y-74609541D01*
X151366069Y-74575994D01*
X151178797Y-74347803D01*
X150950605Y-74160531D01*
X150690263Y-74021375D01*
X150407776Y-73935684D01*
X150114000Y-73906749D01*
X149820223Y-73935684D01*
X149537736Y-74021375D01*
X149277394Y-74160531D01*
X149049203Y-74347803D01*
X148861931Y-74575995D01*
X148844000Y-74609541D01*
X148826069Y-74575994D01*
X148638797Y-74347803D01*
X148410605Y-74160531D01*
X148150263Y-74021375D01*
X147867776Y-73935684D01*
X147574000Y-73906749D01*
X147280223Y-73935684D01*
X146997736Y-74021375D01*
X146737394Y-74160531D01*
X146509203Y-74347803D01*
X146321931Y-74575995D01*
X146304000Y-74609541D01*
X146286069Y-74575994D01*
X146098797Y-74347803D01*
X145870605Y-74160531D01*
X145610263Y-74021375D01*
X145327776Y-73935684D01*
X145034000Y-73906749D01*
X144740223Y-73935684D01*
X144457736Y-74021375D01*
X144197394Y-74160531D01*
X143969203Y-74347803D01*
X143781931Y-74575995D01*
X143764000Y-74609541D01*
X143746069Y-74575994D01*
X143558797Y-74347803D01*
X143330605Y-74160531D01*
X143070263Y-74021375D01*
X142787776Y-73935684D01*
X142494000Y-73906749D01*
X142200223Y-73935684D01*
X141917736Y-74021375D01*
X141657394Y-74160531D01*
X141429203Y-74347803D01*
X141241931Y-74575995D01*
X141224000Y-74609541D01*
X141206069Y-74575994D01*
X141018797Y-74347803D01*
X140790605Y-74160531D01*
X140530263Y-74021375D01*
X140247776Y-73935684D01*
X139954000Y-73906749D01*
X139660223Y-73935684D01*
X139377736Y-74021375D01*
X139117394Y-74160531D01*
X138889203Y-74347803D01*
X138701931Y-74575995D01*
X138680576Y-74615947D01*
X138532486Y-74413271D01*
X138316035Y-74214267D01*
X138064919Y-74061314D01*
X137788789Y-73960291D01*
X137773026Y-73957642D01*
X137541000Y-74078783D01*
X137287000Y-74078783D01*
X137054974Y-73957642D01*
X137039211Y-73960291D01*
X136763081Y-74061314D01*
X136511965Y-74214267D01*
X136295514Y-74413271D01*
X136147424Y-74615947D01*
X136126069Y-74575994D01*
X135938797Y-74347803D01*
X135710605Y-74160531D01*
X135450263Y-74021375D01*
X135167776Y-73935684D01*
X134874000Y-73906749D01*
X134580223Y-73935684D01*
X134297736Y-74021375D01*
X134037394Y-74160531D01*
X133809203Y-74347803D01*
X133621931Y-74575995D01*
X133604000Y-74609541D01*
X133586069Y-74575994D01*
X133398797Y-74347803D01*
X133170605Y-74160531D01*
X132910263Y-74021375D01*
X132627776Y-73935684D01*
X132334000Y-73906749D01*
X132040223Y-73935684D01*
X131757736Y-74021375D01*
X131497394Y-74160531D01*
X131269203Y-74347803D01*
X131081931Y-74575995D01*
X131064000Y-74609541D01*
X131046069Y-74575994D01*
X130858797Y-74347803D01*
X130630605Y-74160531D01*
X130370263Y-74021375D01*
X130087776Y-73935684D01*
X129794000Y-73906749D01*
X129500223Y-73935684D01*
X129217736Y-74021375D01*
X128957394Y-74160531D01*
X128729203Y-74347803D01*
X128657001Y-74435781D01*
X128601464Y-74301702D01*
X128309594Y-73864887D01*
X128179707Y-73735000D01*
X175219909Y-73735000D01*
X176328001Y-74843093D01*
X176328000Y-85944125D01*
X176324565Y-85979000D01*
X176328000Y-86013875D01*
X176328000Y-86013876D01*
X176338273Y-86118183D01*
X176378872Y-86252019D01*
X176444800Y-86375362D01*
X176533525Y-86483474D01*
X176560617Y-86505708D01*
X178868001Y-88813093D01*
X178868001Y-88863294D01*
X178738113Y-88733406D01*
X178301298Y-88441536D01*
X177815935Y-88240492D01*
X177300677Y-88138000D01*
X176775323Y-88138000D01*
X176260065Y-88240492D01*
X175774702Y-88441536D01*
X175337887Y-88733406D01*
X174966406Y-89104887D01*
X174674536Y-89541702D01*
X174473492Y-90027065D01*
X174371000Y-90542323D01*
X174371000Y-91067677D01*
X174473492Y-91582935D01*
X174674536Y-92068298D01*
X174966406Y-92505113D01*
X175337887Y-92876594D01*
X175774702Y-93168464D01*
X176260065Y-93369508D01*
X176775323Y-93472000D01*
X177300677Y-93472000D01*
X177815935Y-93369508D01*
X178301298Y-93168464D01*
X178738113Y-92876594D01*
X178868001Y-92746706D01*
X178868000Y-116803293D01*
X178738113Y-116673406D01*
X178301298Y-116381536D01*
X177815935Y-116180492D01*
X177300677Y-116078000D01*
X176775323Y-116078000D01*
X176260065Y-116180492D01*
X175774702Y-116381536D01*
X175383000Y-116643263D01*
X175383000Y-101008465D01*
X175387281Y-100964999D01*
X175383000Y-100921533D01*
X175383000Y-100921523D01*
X175370195Y-100791510D01*
X175319589Y-100624687D01*
X175237411Y-100470941D01*
X175207431Y-100434410D01*
X175154532Y-100369953D01*
X175154530Y-100369951D01*
X175126817Y-100336183D01*
X175093050Y-100308471D01*
X173884532Y-99099954D01*
X173856817Y-99066183D01*
X173722059Y-98955589D01*
X173568313Y-98873411D01*
X173401490Y-98822805D01*
X173271477Y-98810000D01*
X173271469Y-98810000D01*
X173228000Y-98805719D01*
X173184531Y-98810000D01*
X172063059Y-98810000D01*
X171957987Y-98652748D01*
X171730252Y-98425013D01*
X171621400Y-98352280D01*
X171643808Y-98290413D01*
X170688000Y-97334605D01*
X169732192Y-98290413D01*
X169754600Y-98352280D01*
X169645748Y-98425013D01*
X169418013Y-98652748D01*
X169239082Y-98920537D01*
X169115832Y-99218088D01*
X169053000Y-99533967D01*
X169053000Y-99856033D01*
X169115832Y-100171912D01*
X169239082Y-100469463D01*
X169418013Y-100737252D01*
X169645748Y-100964987D01*
X169645767Y-100965000D01*
X169645748Y-100965013D01*
X169418013Y-101192748D01*
X169239082Y-101460537D01*
X169115832Y-101758088D01*
X169053000Y-102073967D01*
X169053000Y-102396033D01*
X169115832Y-102711912D01*
X169239082Y-103009463D01*
X169418013Y-103277252D01*
X169645748Y-103504987D01*
X169645767Y-103505000D01*
X169645748Y-103505013D01*
X169418013Y-103732748D01*
X169239082Y-104000537D01*
X169115832Y-104298088D01*
X169053000Y-104613967D01*
X169053000Y-104936033D01*
X169115832Y-105251912D01*
X169239082Y-105549463D01*
X169418013Y-105817252D01*
X169645748Y-106044987D01*
X169913537Y-106223918D01*
X170211088Y-106347168D01*
X170526967Y-106410000D01*
X170849033Y-106410000D01*
X171034525Y-106373104D01*
X171073000Y-106411579D01*
X171073001Y-122460246D01*
X170893203Y-122607803D01*
X170705931Y-122835995D01*
X170688000Y-122869541D01*
X170670069Y-122835994D01*
X170482797Y-122607803D01*
X170254605Y-122420531D01*
X169994263Y-122281375D01*
X169711776Y-122195684D01*
X169418000Y-122166749D01*
X169124223Y-122195684D01*
X168841736Y-122281375D01*
X168581394Y-122420531D01*
X168353203Y-122607803D01*
X168165931Y-122835995D01*
X168148000Y-122869541D01*
X168130069Y-122835994D01*
X167942797Y-122607803D01*
X167714605Y-122420531D01*
X167454263Y-122281375D01*
X167171776Y-122195684D01*
X166878000Y-122166749D01*
X166584223Y-122195684D01*
X166301736Y-122281375D01*
X166041394Y-122420531D01*
X165813203Y-122607803D01*
X165625931Y-122835995D01*
X165608000Y-122869541D01*
X165590069Y-122835994D01*
X165402797Y-122607803D01*
X165174605Y-122420531D01*
X164914263Y-122281375D01*
X164631776Y-122195684D01*
X164371007Y-122170000D01*
X165564531Y-122170000D01*
X165608000Y-122174281D01*
X165651469Y-122170000D01*
X165651477Y-122170000D01*
X165781490Y-122157195D01*
X165948313Y-122106589D01*
X166102059Y-122024411D01*
X166236817Y-121913817D01*
X166264534Y-121880044D01*
X168743049Y-119401530D01*
X168776817Y-119373817D01*
X168887411Y-119239059D01*
X168969589Y-119085313D01*
X169020195Y-118918490D01*
X169033000Y-118788477D01*
X169033000Y-118788467D01*
X169037281Y-118745001D01*
X169033000Y-118701535D01*
X169033000Y-103548465D01*
X169037281Y-103504999D01*
X169033000Y-103461533D01*
X169033000Y-103461523D01*
X169020195Y-103331510D01*
X168969589Y-103164687D01*
X168887411Y-103010941D01*
X168808450Y-102914727D01*
X168804532Y-102909953D01*
X168804530Y-102909951D01*
X168776817Y-102876183D01*
X168743050Y-102848471D01*
X167534534Y-101639956D01*
X167506817Y-101606183D01*
X167372059Y-101495589D01*
X167218313Y-101413411D01*
X167051490Y-101362805D01*
X166921477Y-101350000D01*
X166921469Y-101350000D01*
X166878000Y-101345719D01*
X166834531Y-101350000D01*
X165472521Y-101350000D01*
X165452637Y-101320241D01*
X165252759Y-101120363D01*
X165017727Y-100963320D01*
X164756574Y-100855147D01*
X164479335Y-100800000D01*
X164196665Y-100800000D01*
X163919426Y-100855147D01*
X163658273Y-100963320D01*
X163423241Y-101120363D01*
X163223363Y-101320241D01*
X163203479Y-101350000D01*
X158990975Y-101350000D01*
X158839013Y-101198038D01*
X158620359Y-101051939D01*
X158377405Y-100951304D01*
X158119486Y-100900000D01*
X157856514Y-100900000D01*
X157598595Y-100951304D01*
X157355641Y-101051939D01*
X157136987Y-101198038D01*
X156951038Y-101383987D01*
X156804939Y-101602641D01*
X156704304Y-101845595D01*
X156653000Y-102103514D01*
X156653000Y-102366486D01*
X156704304Y-102624405D01*
X156804939Y-102867359D01*
X156951038Y-103086013D01*
X157136987Y-103271962D01*
X157355641Y-103418061D01*
X157598595Y-103518696D01*
X157856514Y-103570000D01*
X158119486Y-103570000D01*
X158377405Y-103518696D01*
X158620359Y-103418061D01*
X158839013Y-103271962D01*
X158990975Y-103120000D01*
X163203479Y-103120000D01*
X163223363Y-103149759D01*
X163423241Y-103349637D01*
X163658273Y-103506680D01*
X163919426Y-103614853D01*
X164196665Y-103670000D01*
X164479335Y-103670000D01*
X164756574Y-103614853D01*
X165017727Y-103506680D01*
X165252759Y-103349637D01*
X165452637Y-103149759D01*
X165472521Y-103120000D01*
X166511422Y-103120000D01*
X167263000Y-103871579D01*
X167263001Y-118378420D01*
X165241422Y-120400000D01*
X162865469Y-120400000D01*
X162822000Y-120395719D01*
X162778531Y-120400000D01*
X162778523Y-120400000D01*
X162648510Y-120412805D01*
X162481686Y-120463411D01*
X162327941Y-120545589D01*
X162226953Y-120628468D01*
X162226951Y-120628470D01*
X162193183Y-120656183D01*
X162165470Y-120689951D01*
X161202956Y-121652466D01*
X161169183Y-121680183D01*
X161058589Y-121814942D01*
X160976411Y-121968688D01*
X160941157Y-122084904D01*
X160925805Y-122135510D01*
X160925704Y-122136537D01*
X160913000Y-122265524D01*
X160913000Y-122265531D01*
X160908719Y-122309000D01*
X160913000Y-122352470D01*
X160913000Y-122460247D01*
X160733203Y-122607803D01*
X160545931Y-122835995D01*
X160406775Y-123096337D01*
X160321084Y-123378824D01*
X160299400Y-123598982D01*
X160299400Y-124051019D01*
X160321084Y-124271177D01*
X160406775Y-124553664D01*
X160545931Y-124814006D01*
X160661634Y-124954990D01*
X157854366Y-124954990D01*
X157970069Y-124814006D01*
X158109225Y-124553663D01*
X158194916Y-124271176D01*
X158216600Y-124051018D01*
X158216600Y-123598981D01*
X158194916Y-123378823D01*
X158109225Y-123096336D01*
X157970069Y-122835994D01*
X157782797Y-122607803D01*
X157554605Y-122420531D01*
X157294263Y-122281375D01*
X157011776Y-122195684D01*
X156718000Y-122166749D01*
X156424223Y-122195684D01*
X156141736Y-122281375D01*
X155881394Y-122420531D01*
X155653203Y-122607803D01*
X155465931Y-122835995D01*
X155444576Y-122875947D01*
X155296486Y-122673271D01*
X155080035Y-122474267D01*
X154828919Y-122321314D01*
X154552789Y-122220291D01*
X154537026Y-122217642D01*
X154305000Y-122338783D01*
X154305000Y-123698000D01*
X154325000Y-123698000D01*
X154325000Y-123952000D01*
X154305000Y-123952000D01*
X154305000Y-123972000D01*
X154051000Y-123972000D01*
X154051000Y-123952000D01*
X151765000Y-123952000D01*
X151765000Y-123972000D01*
X151511000Y-123972000D01*
X151511000Y-123952000D01*
X151491000Y-123952000D01*
X151491000Y-123698000D01*
X151511000Y-123698000D01*
X151511000Y-122338783D01*
X151765000Y-122338783D01*
X151765000Y-123698000D01*
X154051000Y-123698000D01*
X154051000Y-122338783D01*
X153818974Y-122217642D01*
X153803211Y-122220291D01*
X153527081Y-122321314D01*
X153275965Y-122474267D01*
X153059514Y-122673271D01*
X152908000Y-122880633D01*
X152756486Y-122673271D01*
X152540035Y-122474267D01*
X152288919Y-122321314D01*
X152012789Y-122220291D01*
X151997026Y-122217642D01*
X151765000Y-122338783D01*
X151511000Y-122338783D01*
X151278974Y-122217642D01*
X151263211Y-122220291D01*
X150987081Y-122321314D01*
X150735965Y-122474267D01*
X150519514Y-122673271D01*
X150371424Y-122875947D01*
X150350069Y-122835994D01*
X150162797Y-122607803D01*
X149983000Y-122460248D01*
X149983000Y-121651578D01*
X150734579Y-120900000D01*
X154134531Y-120900000D01*
X154178000Y-120904281D01*
X154221469Y-120900000D01*
X154221477Y-120900000D01*
X154351490Y-120887195D01*
X154518313Y-120836589D01*
X154672059Y-120754411D01*
X154806817Y-120643817D01*
X154834534Y-120610044D01*
X156043049Y-119401530D01*
X156076817Y-119373817D01*
X156187411Y-119239059D01*
X156269589Y-119085313D01*
X156320195Y-118918490D01*
X156333000Y-118788477D01*
X156333000Y-118788467D01*
X156337281Y-118745001D01*
X156333000Y-118701535D01*
X156333000Y-110084040D01*
X162946091Y-110084040D01*
X163040930Y-110348881D01*
X163185615Y-110590131D01*
X163374586Y-110798519D01*
X163600580Y-110966037D01*
X163854913Y-111086246D01*
X163988961Y-111126904D01*
X164211000Y-111004915D01*
X164211000Y-109862000D01*
X164465000Y-109862000D01*
X164465000Y-111004915D01*
X164687039Y-111126904D01*
X164821087Y-111086246D01*
X165075420Y-110966037D01*
X165301414Y-110798519D01*
X165490385Y-110590131D01*
X165635070Y-110348881D01*
X165729909Y-110084040D01*
X165608624Y-109862000D01*
X164465000Y-109862000D01*
X164211000Y-109862000D01*
X163067376Y-109862000D01*
X162946091Y-110084040D01*
X156333000Y-110084040D01*
X156333000Y-109385960D01*
X162946091Y-109385960D01*
X163067376Y-109608000D01*
X164211000Y-109608000D01*
X164211000Y-108465085D01*
X164465000Y-108465085D01*
X164465000Y-109608000D01*
X165608624Y-109608000D01*
X165729909Y-109385960D01*
X165635070Y-109121119D01*
X165490385Y-108879869D01*
X165301414Y-108671481D01*
X165075420Y-108503963D01*
X164821087Y-108383754D01*
X164687039Y-108343096D01*
X164465000Y-108465085D01*
X164211000Y-108465085D01*
X163988961Y-108343096D01*
X163854913Y-108383754D01*
X163600580Y-108503963D01*
X163374586Y-108671481D01*
X163185615Y-108879869D01*
X163040930Y-109121119D01*
X162946091Y-109385960D01*
X156333000Y-109385960D01*
X156333000Y-102278465D01*
X156337281Y-102234999D01*
X156333000Y-102191533D01*
X156333000Y-102191523D01*
X156320195Y-102061510D01*
X156269589Y-101894687D01*
X156187411Y-101740941D01*
X156076817Y-101606183D01*
X156043050Y-101578471D01*
X154834532Y-100369954D01*
X154806817Y-100336183D01*
X154672059Y-100225589D01*
X154518313Y-100143411D01*
X154351490Y-100092805D01*
X154221477Y-100080000D01*
X154221469Y-100080000D01*
X154178000Y-100075719D01*
X154134531Y-100080000D01*
X148144579Y-100080000D01*
X148106104Y-100041525D01*
X148143000Y-99856033D01*
X148143000Y-99533967D01*
X148106104Y-99348475D01*
X148144579Y-99310000D01*
X149054524Y-99310000D01*
X149098000Y-99314282D01*
X149141477Y-99310000D01*
X154014531Y-99310000D01*
X154058000Y-99314281D01*
X154101469Y-99310000D01*
X154101477Y-99310000D01*
X154231490Y-99297195D01*
X154398313Y-99246589D01*
X154552059Y-99164411D01*
X154686817Y-99053817D01*
X154714534Y-99020044D01*
X155274704Y-98459875D01*
X155377508Y-98470000D01*
X155518492Y-98470000D01*
X155729309Y-98449236D01*
X155999808Y-98367182D01*
X156249101Y-98233932D01*
X156467608Y-98054608D01*
X156646932Y-97836101D01*
X156780182Y-97586808D01*
X156862236Y-97316309D01*
X156871958Y-97217595D01*
X169046282Y-97217595D01*
X169090039Y-97536675D01*
X169195205Y-97841088D01*
X169288186Y-98015044D01*
X169552587Y-98110808D01*
X170508395Y-97155000D01*
X170867605Y-97155000D01*
X171823413Y-98110808D01*
X172087814Y-98015044D01*
X172228704Y-97725429D01*
X172310384Y-97413892D01*
X172329718Y-97092405D01*
X172285961Y-96773325D01*
X172180795Y-96468912D01*
X172087814Y-96294956D01*
X171823413Y-96199192D01*
X170867605Y-97155000D01*
X170508395Y-97155000D01*
X169552587Y-96199192D01*
X169288186Y-96294956D01*
X169147296Y-96584571D01*
X169065616Y-96896108D01*
X169046282Y-97217595D01*
X156871958Y-97217595D01*
X156889943Y-97035000D01*
X156862236Y-96753691D01*
X156780182Y-96483192D01*
X156646932Y-96233899D01*
X156471051Y-96019587D01*
X169732192Y-96019587D01*
X170688000Y-96975395D01*
X171643808Y-96019587D01*
X171548044Y-95755186D01*
X171258429Y-95614296D01*
X170946892Y-95532616D01*
X170625405Y-95513282D01*
X170306325Y-95557039D01*
X170001912Y-95662205D01*
X169827956Y-95755186D01*
X169732192Y-96019587D01*
X156471051Y-96019587D01*
X156467608Y-96015392D01*
X156249101Y-95836068D01*
X155999808Y-95702818D01*
X155729309Y-95620764D01*
X155518492Y-95600000D01*
X155377508Y-95600000D01*
X155166691Y-95620764D01*
X154896192Y-95702818D01*
X154646899Y-95836068D01*
X154428392Y-96015392D01*
X154249068Y-96233899D01*
X154115818Y-96483192D01*
X154033764Y-96753691D01*
X154006057Y-97035000D01*
X154023125Y-97208296D01*
X153691422Y-97540000D01*
X149983000Y-97540000D01*
X149983000Y-90527702D01*
X154634903Y-90527702D01*
X154706486Y-90771671D01*
X154961996Y-90892571D01*
X155236184Y-90961300D01*
X155518512Y-90975217D01*
X155798130Y-90933787D01*
X156064292Y-90838603D01*
X156189514Y-90771671D01*
X156261097Y-90527702D01*
X155448000Y-89714605D01*
X154634903Y-90527702D01*
X149983000Y-90527702D01*
X149983000Y-89901578D01*
X150279066Y-89605512D01*
X154007783Y-89605512D01*
X154049213Y-89885130D01*
X154144397Y-90151292D01*
X154211329Y-90276514D01*
X154455298Y-90348097D01*
X155268395Y-89535000D01*
X155627605Y-89535000D01*
X156440702Y-90348097D01*
X156684671Y-90276514D01*
X156805571Y-90021004D01*
X156874300Y-89746816D01*
X156888217Y-89464488D01*
X156846787Y-89184870D01*
X156751603Y-88918708D01*
X156684671Y-88793486D01*
X156440702Y-88721903D01*
X155627605Y-89535000D01*
X155268395Y-89535000D01*
X154455298Y-88721903D01*
X154211329Y-88793486D01*
X154090429Y-89048996D01*
X154021700Y-89323184D01*
X154007783Y-89605512D01*
X150279066Y-89605512D01*
X150963049Y-88921530D01*
X150996817Y-88893817D01*
X151107411Y-88759059D01*
X151189589Y-88605313D01*
X151208704Y-88542298D01*
X154634903Y-88542298D01*
X155448000Y-89355395D01*
X156261097Y-88542298D01*
X156189514Y-88298329D01*
X155934004Y-88177429D01*
X155659816Y-88108700D01*
X155377488Y-88094783D01*
X155097870Y-88136213D01*
X154831708Y-88231397D01*
X154706486Y-88298329D01*
X154634903Y-88542298D01*
X151208704Y-88542298D01*
X151240195Y-88438490D01*
X151253000Y-88308477D01*
X151253000Y-88308467D01*
X151257281Y-88265001D01*
X151253000Y-88221535D01*
X151253000Y-85830059D01*
X151410252Y-85724987D01*
X151637987Y-85497252D01*
X151816918Y-85229463D01*
X151940168Y-84931912D01*
X152003000Y-84616033D01*
X152003000Y-84293967D01*
X151940168Y-83978088D01*
X151816918Y-83680537D01*
X151637987Y-83412748D01*
X151410252Y-83185013D01*
X151142463Y-83006082D01*
X150844912Y-82882832D01*
X150529033Y-82820000D01*
X150206967Y-82820000D01*
X149891088Y-82882832D01*
X149593537Y-83006082D01*
X149325748Y-83185013D01*
X149098013Y-83412748D01*
X149025280Y-83521600D01*
X148963413Y-83499192D01*
X148007605Y-84455000D01*
X148963413Y-85410808D01*
X149025280Y-85388400D01*
X149098013Y-85497252D01*
X149325748Y-85724987D01*
X149483000Y-85830060D01*
X149483001Y-87898420D01*
X148731422Y-88650000D01*
X138993059Y-88650000D01*
X138887987Y-88492748D01*
X138660252Y-88265013D01*
X138392463Y-88086082D01*
X138094912Y-87962832D01*
X137779033Y-87900000D01*
X137456967Y-87900000D01*
X137141088Y-87962832D01*
X136843537Y-88086082D01*
X136575748Y-88265013D01*
X136348013Y-88492748D01*
X136169082Y-88760537D01*
X136045832Y-89058088D01*
X135983000Y-89373967D01*
X135983000Y-89696033D01*
X136045832Y-90011912D01*
X136169082Y-90309463D01*
X136348013Y-90577252D01*
X136575748Y-90804987D01*
X136843537Y-90983918D01*
X137141088Y-91107168D01*
X137456967Y-91170000D01*
X137779033Y-91170000D01*
X138094912Y-91107168D01*
X138392463Y-90983918D01*
X138660252Y-90804987D01*
X138887987Y-90577252D01*
X138993059Y-90420000D01*
X148213000Y-90420000D01*
X148213001Y-97111514D01*
X148213000Y-97111524D01*
X148213000Y-97540000D01*
X148098450Y-97540000D01*
X148143000Y-97316033D01*
X148143000Y-96993967D01*
X148080168Y-96678088D01*
X147956918Y-96380537D01*
X147777987Y-96112748D01*
X147550252Y-95885013D01*
X147282463Y-95706082D01*
X146984912Y-95582832D01*
X146669033Y-95520000D01*
X146346967Y-95520000D01*
X146031088Y-95582832D01*
X145733537Y-95706082D01*
X145465748Y-95885013D01*
X145238013Y-96112748D01*
X145059082Y-96380537D01*
X144935832Y-96678088D01*
X144873000Y-96993967D01*
X144873000Y-97316033D01*
X144935832Y-97631912D01*
X145059082Y-97929463D01*
X145238013Y-98197252D01*
X145465748Y-98424987D01*
X145465767Y-98425000D01*
X145465748Y-98425013D01*
X145238013Y-98652748D01*
X145059082Y-98920537D01*
X144935832Y-99218088D01*
X144873000Y-99533967D01*
X144873000Y-99856033D01*
X144935832Y-100171912D01*
X145059082Y-100469463D01*
X145238013Y-100737252D01*
X145465748Y-100964987D01*
X145465767Y-100965000D01*
X145465748Y-100965013D01*
X145238013Y-101192748D01*
X145059082Y-101460537D01*
X144935832Y-101758088D01*
X144873000Y-102073967D01*
X144873000Y-102396033D01*
X144935832Y-102711912D01*
X145059082Y-103009463D01*
X145238013Y-103277252D01*
X145465748Y-103504987D01*
X145465767Y-103505000D01*
X145465748Y-103505013D01*
X145238013Y-103732748D01*
X145059082Y-104000537D01*
X144935832Y-104298088D01*
X144873000Y-104613967D01*
X144873000Y-104936033D01*
X144935832Y-105251912D01*
X145059082Y-105549463D01*
X145238013Y-105817252D01*
X145465748Y-106044987D01*
X145733537Y-106223918D01*
X146031088Y-106347168D01*
X146346967Y-106410000D01*
X146669033Y-106410000D01*
X146984912Y-106347168D01*
X147282463Y-106223918D01*
X147550252Y-106044987D01*
X147777987Y-105817252D01*
X147956918Y-105549463D01*
X148080168Y-105251912D01*
X148120512Y-105049090D01*
X148213001Y-105141580D01*
X148213000Y-112186080D01*
X147281040Y-114050000D01*
X134912521Y-114050000D01*
X134892637Y-114020241D01*
X134692759Y-113820363D01*
X134457727Y-113663320D01*
X134196574Y-113555147D01*
X133919335Y-113500000D01*
X133636665Y-113500000D01*
X133359426Y-113555147D01*
X133098273Y-113663320D01*
X132863241Y-113820363D01*
X132663363Y-114020241D01*
X132506320Y-114255273D01*
X132398147Y-114516426D01*
X132343000Y-114793665D01*
X132343000Y-115076335D01*
X132398147Y-115353574D01*
X132506320Y-115614727D01*
X132663363Y-115849759D01*
X132863241Y-116049637D01*
X132973001Y-116122976D01*
X132973000Y-120284287D01*
X132909445Y-120336445D01*
X132742618Y-120539725D01*
X132618653Y-120771646D01*
X132542317Y-121023294D01*
X132516541Y-121285000D01*
X132542317Y-121546706D01*
X132618653Y-121798354D01*
X132742618Y-122030275D01*
X132909445Y-122233555D01*
X133112725Y-122400382D01*
X133344646Y-122524347D01*
X133596294Y-122600683D01*
X133792421Y-122620000D01*
X133923579Y-122620000D01*
X134119706Y-122600683D01*
X134371354Y-122524347D01*
X134603275Y-122400382D01*
X134806555Y-122233555D01*
X134973382Y-122030275D01*
X135097347Y-121798354D01*
X135173683Y-121546706D01*
X135199459Y-121285000D01*
X135173683Y-121023294D01*
X135097347Y-120771646D01*
X134973382Y-120539725D01*
X134806555Y-120336445D01*
X134743000Y-120284287D01*
X134743000Y-115999396D01*
X134892637Y-115849759D01*
X134912521Y-115820000D01*
X147752989Y-115820000D01*
X147764960Y-115822044D01*
X147840028Y-115820000D01*
X147871477Y-115820000D01*
X147883493Y-115818816D01*
X147939225Y-115817299D01*
X147970037Y-115810293D01*
X148001490Y-115807195D01*
X148054856Y-115791006D01*
X148109215Y-115778646D01*
X148138068Y-115765764D01*
X148168313Y-115756589D01*
X148217489Y-115730304D01*
X148268399Y-115707574D01*
X148294183Y-115689311D01*
X148322059Y-115674411D01*
X148365176Y-115639026D01*
X148410658Y-115606810D01*
X148432380Y-115583872D01*
X148456817Y-115563817D01*
X148492198Y-115520706D01*
X148530527Y-115480231D01*
X148547359Y-115453493D01*
X148567411Y-115429059D01*
X148593697Y-115379881D01*
X148600124Y-115369671D01*
X148614177Y-115341564D01*
X148649589Y-115275313D01*
X148653115Y-115263688D01*
X149884185Y-112801550D01*
X149919589Y-112735313D01*
X149935774Y-112681958D01*
X149955701Y-112629884D01*
X149961019Y-112598739D01*
X149970195Y-112568490D01*
X149975662Y-112512981D01*
X149985043Y-112458041D01*
X149983000Y-112382994D01*
X149983000Y-104818465D01*
X149987281Y-104774999D01*
X149983000Y-104731533D01*
X149983000Y-104731523D01*
X149970195Y-104601510D01*
X149919589Y-104434687D01*
X149837411Y-104280941D01*
X149726817Y-104146183D01*
X149693049Y-104118470D01*
X148694579Y-103120000D01*
X151907287Y-103120000D01*
X151959445Y-103183555D01*
X152162725Y-103350382D01*
X152394646Y-103474347D01*
X152646294Y-103550683D01*
X152842421Y-103570000D01*
X152973579Y-103570000D01*
X153169706Y-103550683D01*
X153421354Y-103474347D01*
X153653275Y-103350382D01*
X153856555Y-103183555D01*
X154023382Y-102980275D01*
X154147347Y-102748354D01*
X154223683Y-102496706D01*
X154244704Y-102283282D01*
X154563000Y-102601579D01*
X154563001Y-118378420D01*
X153811422Y-119130000D01*
X150411465Y-119130000D01*
X150367999Y-119125719D01*
X150324533Y-119130000D01*
X150324523Y-119130000D01*
X150194510Y-119142805D01*
X150027687Y-119193411D01*
X149873941Y-119275589D01*
X149873939Y-119275590D01*
X149873940Y-119275590D01*
X149772953Y-119358468D01*
X149772951Y-119358470D01*
X149739183Y-119386183D01*
X149711470Y-119419951D01*
X148502956Y-120628466D01*
X148469183Y-120656183D01*
X148358589Y-120790942D01*
X148276411Y-120944688D01*
X148255998Y-121011981D01*
X148225806Y-121111509D01*
X148225805Y-121111511D01*
X148213000Y-121241524D01*
X148213000Y-121241531D01*
X148208719Y-121285000D01*
X148213000Y-121328469D01*
X148213000Y-122460247D01*
X148033203Y-122607803D01*
X147845931Y-122835995D01*
X147828000Y-122869541D01*
X147810069Y-122835994D01*
X147622797Y-122607803D01*
X147394605Y-122420531D01*
X147134263Y-122281375D01*
X146851776Y-122195684D01*
X146558000Y-122166749D01*
X146264223Y-122195684D01*
X145981736Y-122281375D01*
X145721394Y-122420531D01*
X145493203Y-122607803D01*
X145305931Y-122835995D01*
X145288000Y-122869541D01*
X145270069Y-122835994D01*
X145082797Y-122607803D01*
X144854605Y-122420531D01*
X144594263Y-122281375D01*
X144311776Y-122195684D01*
X144018000Y-122166749D01*
X143724223Y-122195684D01*
X143441736Y-122281375D01*
X143181394Y-122420531D01*
X142953203Y-122607803D01*
X142765931Y-122835995D01*
X142748000Y-122869541D01*
X142730069Y-122835994D01*
X142542797Y-122607803D01*
X142314605Y-122420531D01*
X142054263Y-122281375D01*
X141771776Y-122195684D01*
X141478000Y-122166749D01*
X141184223Y-122195684D01*
X140901736Y-122281375D01*
X140641394Y-122420531D01*
X140413203Y-122607803D01*
X140225931Y-122835995D01*
X140208000Y-122869541D01*
X140190069Y-122835994D01*
X140002797Y-122607803D01*
X139774605Y-122420531D01*
X139514263Y-122281375D01*
X139231776Y-122195684D01*
X138938000Y-122166749D01*
X138644223Y-122195684D01*
X138361736Y-122281375D01*
X138101394Y-122420531D01*
X137873203Y-122607803D01*
X137685931Y-122835995D01*
X137546775Y-123096337D01*
X137461084Y-123378824D01*
X137439400Y-123598982D01*
X137439400Y-124051019D01*
X137461084Y-124271177D01*
X137546775Y-124553664D01*
X137685931Y-124814006D01*
X137873203Y-125042197D01*
X138101395Y-125229469D01*
X138361737Y-125368625D01*
X138644224Y-125454316D01*
X138938000Y-125483251D01*
X139231777Y-125454316D01*
X139514264Y-125368625D01*
X139774606Y-125229469D01*
X140002797Y-125042197D01*
X140190069Y-124814006D01*
X140208000Y-124780459D01*
X140225931Y-124814006D01*
X140413203Y-125042197D01*
X140641395Y-125229469D01*
X140901737Y-125368625D01*
X141184224Y-125454316D01*
X141478000Y-125483251D01*
X141771777Y-125454316D01*
X142054264Y-125368625D01*
X142314606Y-125229469D01*
X142542797Y-125042197D01*
X142730069Y-124814006D01*
X142748000Y-124780459D01*
X142765931Y-124814006D01*
X142953203Y-125042197D01*
X143181395Y-125229469D01*
X143441737Y-125368625D01*
X143724224Y-125454316D01*
X144018000Y-125483251D01*
X144311777Y-125454316D01*
X144594264Y-125368625D01*
X144854606Y-125229469D01*
X145082797Y-125042197D01*
X145270069Y-124814006D01*
X145288000Y-124780459D01*
X145305931Y-124814006D01*
X145493203Y-125042197D01*
X145721395Y-125229469D01*
X145981737Y-125368625D01*
X146264224Y-125454316D01*
X146558000Y-125483251D01*
X146851777Y-125454316D01*
X147134264Y-125368625D01*
X147394606Y-125229469D01*
X147622797Y-125042197D01*
X147810069Y-124814006D01*
X147828000Y-124780459D01*
X147845931Y-124814006D01*
X148033203Y-125042197D01*
X148261395Y-125229469D01*
X148521737Y-125368625D01*
X148804224Y-125454316D01*
X149098000Y-125483251D01*
X149329474Y-125460452D01*
X149524021Y-125655000D01*
X126909707Y-125655000D01*
X127039594Y-125525113D01*
X127331464Y-125088298D01*
X127532508Y-124602935D01*
X127635000Y-124087677D01*
X127635000Y-123562323D01*
X127532508Y-123047065D01*
X127331464Y-122561702D01*
X127069737Y-122170000D01*
X127775025Y-122170000D01*
X127926987Y-122321962D01*
X128145641Y-122468061D01*
X128388595Y-122568696D01*
X128646514Y-122620000D01*
X128909486Y-122620000D01*
X129167405Y-122568696D01*
X129410359Y-122468061D01*
X129629013Y-122321962D01*
X129814962Y-122136013D01*
X129961061Y-121917359D01*
X130061696Y-121674405D01*
X130113000Y-121416486D01*
X130113000Y-121153514D01*
X130061696Y-120895595D01*
X129961061Y-120652641D01*
X129814962Y-120433987D01*
X129629013Y-120248038D01*
X129410359Y-120101939D01*
X129167405Y-120001304D01*
X128909486Y-119950000D01*
X128646514Y-119950000D01*
X128388595Y-120001304D01*
X128145641Y-120101939D01*
X127926987Y-120248038D01*
X127775025Y-120400000D01*
X126604579Y-120400000D01*
X125853000Y-119648422D01*
X125853000Y-116571578D01*
X126604579Y-115820000D01*
X127643479Y-115820000D01*
X127663363Y-115849759D01*
X127863241Y-116049637D01*
X128098273Y-116206680D01*
X128359426Y-116314853D01*
X128636665Y-116370000D01*
X128919335Y-116370000D01*
X129196574Y-116314853D01*
X129457727Y-116206680D01*
X129692759Y-116049637D01*
X129892637Y-115849759D01*
X130049680Y-115614727D01*
X130157853Y-115353574D01*
X130213000Y-115076335D01*
X130213000Y-114793665D01*
X130157853Y-114516426D01*
X130049680Y-114255273D01*
X129892637Y-114020241D01*
X129692759Y-113820363D01*
X129663000Y-113800479D01*
X129663000Y-111491578D01*
X131234579Y-109920000D01*
X131449486Y-109920000D01*
X131707405Y-109868696D01*
X131950359Y-109768061D01*
X132169013Y-109621962D01*
X132320975Y-109470000D01*
X141434531Y-109470000D01*
X141478000Y-109474281D01*
X141521469Y-109470000D01*
X141521477Y-109470000D01*
X141651490Y-109457195D01*
X141818313Y-109406589D01*
X141972059Y-109324411D01*
X142106817Y-109213817D01*
X142134534Y-109180044D01*
X143343049Y-107971530D01*
X143376817Y-107943817D01*
X143487411Y-107809059D01*
X143569589Y-107655313D01*
X143620195Y-107488490D01*
X143633000Y-107358477D01*
X143633000Y-107358467D01*
X143637281Y-107315001D01*
X143633000Y-107271535D01*
X143633000Y-101008465D01*
X143637281Y-100964999D01*
X143633000Y-100921533D01*
X143633000Y-100921523D01*
X143620195Y-100791510D01*
X143569589Y-100624687D01*
X143487411Y-100470941D01*
X143457431Y-100434410D01*
X143404532Y-100369953D01*
X143404530Y-100369951D01*
X143376817Y-100336183D01*
X143343050Y-100308471D01*
X142134532Y-99099954D01*
X142106817Y-99066183D01*
X141972059Y-98955589D01*
X141818313Y-98873411D01*
X141651490Y-98822805D01*
X141521477Y-98810000D01*
X141521469Y-98810000D01*
X141478000Y-98805719D01*
X141434531Y-98810000D01*
X140363059Y-98810000D01*
X140296370Y-98710191D01*
X140342494Y-98685537D01*
X140439185Y-98606185D01*
X140518537Y-98509494D01*
X140577502Y-98399180D01*
X140613812Y-98279482D01*
X140626072Y-98155000D01*
X140626072Y-96155000D01*
X140613812Y-96030518D01*
X140577502Y-95910820D01*
X140518537Y-95800506D01*
X140439185Y-95703815D01*
X140342494Y-95624463D01*
X140232180Y-95565498D01*
X140112482Y-95529188D01*
X139988000Y-95516928D01*
X137988000Y-95516928D01*
X137863518Y-95529188D01*
X137743820Y-95565498D01*
X137633506Y-95624463D01*
X137536815Y-95703815D01*
X137457463Y-95800506D01*
X137398498Y-95910820D01*
X137362188Y-96030518D01*
X137349928Y-96155000D01*
X137349928Y-98155000D01*
X137362188Y-98279482D01*
X137398498Y-98399180D01*
X137457463Y-98509494D01*
X137536815Y-98606185D01*
X137633506Y-98685537D01*
X137679630Y-98710191D01*
X137539082Y-98920537D01*
X137415832Y-99218088D01*
X137353000Y-99533967D01*
X137353000Y-99856033D01*
X137415832Y-100171912D01*
X137539082Y-100469463D01*
X137718013Y-100737252D01*
X137945748Y-100964987D01*
X137945767Y-100965000D01*
X137945748Y-100965013D01*
X137718013Y-101192748D01*
X137612941Y-101350000D01*
X135494579Y-101350000D01*
X134514532Y-100369954D01*
X134486817Y-100336183D01*
X134352059Y-100225589D01*
X134198313Y-100143411D01*
X134031490Y-100092805D01*
X133901477Y-100080000D01*
X133901469Y-100080000D01*
X133858000Y-100075719D01*
X133814531Y-100080000D01*
X126281465Y-100080000D01*
X126237999Y-100075719D01*
X126194533Y-100080000D01*
X126194523Y-100080000D01*
X126064510Y-100092805D01*
X125897687Y-100143411D01*
X125743941Y-100225589D01*
X125743939Y-100225590D01*
X125743940Y-100225590D01*
X125642953Y-100308468D01*
X125642951Y-100308470D01*
X125609183Y-100336183D01*
X125581470Y-100369951D01*
X123874439Y-102076983D01*
X123839335Y-102070000D01*
X123556665Y-102070000D01*
X123521561Y-102076983D01*
X123313000Y-101868422D01*
X123313000Y-101331578D01*
X124884579Y-99760000D01*
X125099486Y-99760000D01*
X125357405Y-99708696D01*
X125600359Y-99608061D01*
X125819013Y-99461962D01*
X126004962Y-99276013D01*
X126151061Y-99057359D01*
X126251696Y-98814405D01*
X126262850Y-98758329D01*
X128755284Y-98758329D01*
X128787953Y-98866044D01*
X128898208Y-99103392D01*
X129052649Y-99314670D01*
X129245340Y-99491759D01*
X129468877Y-99627853D01*
X129714670Y-99717722D01*
X129921000Y-99595201D01*
X129921000Y-98552000D01*
X130175000Y-98552000D01*
X130175000Y-99595201D01*
X130381330Y-99717722D01*
X130627123Y-99627853D01*
X130850660Y-99491759D01*
X131043351Y-99314670D01*
X131197792Y-99103392D01*
X131308047Y-98866044D01*
X131340716Y-98758329D01*
X131217374Y-98552000D01*
X130175000Y-98552000D01*
X129921000Y-98552000D01*
X128878626Y-98552000D01*
X128755284Y-98758329D01*
X126262850Y-98758329D01*
X126303000Y-98556486D01*
X126303000Y-98293514D01*
X126262851Y-98091671D01*
X128755284Y-98091671D01*
X128878626Y-98298000D01*
X129921000Y-98298000D01*
X129921000Y-97254799D01*
X130175000Y-97254799D01*
X130175000Y-98298000D01*
X131217374Y-98298000D01*
X131340716Y-98091671D01*
X131308047Y-97983956D01*
X131197792Y-97746608D01*
X131043351Y-97535330D01*
X130850660Y-97358241D01*
X130627123Y-97222147D01*
X130381330Y-97132278D01*
X130175000Y-97254799D01*
X129921000Y-97254799D01*
X129714670Y-97132278D01*
X129468877Y-97222147D01*
X129245340Y-97358241D01*
X129052649Y-97535330D01*
X128898208Y-97746608D01*
X128787953Y-97983956D01*
X128755284Y-98091671D01*
X126262851Y-98091671D01*
X126251696Y-98035595D01*
X126151061Y-97792641D01*
X126004962Y-97573987D01*
X125853000Y-97422025D01*
X125853000Y-95615713D01*
X125916555Y-95563555D01*
X126083382Y-95360275D01*
X126207347Y-95128354D01*
X126283683Y-94876706D01*
X126309459Y-94615000D01*
X126283683Y-94353294D01*
X126207347Y-94101646D01*
X126083382Y-93869725D01*
X125916555Y-93666445D01*
X125713275Y-93499618D01*
X125481354Y-93375653D01*
X125229706Y-93299317D01*
X125033579Y-93280000D01*
X124902421Y-93280000D01*
X124706294Y-93299317D01*
X124454646Y-93375653D01*
X124222725Y-93499618D01*
X124019445Y-93666445D01*
X123852618Y-93869725D01*
X123728653Y-94101646D01*
X123652317Y-94353294D01*
X123626541Y-94615000D01*
X123652317Y-94876706D01*
X123728653Y-95128354D01*
X123852618Y-95360275D01*
X124019445Y-95563555D01*
X124083001Y-95615714D01*
X124083000Y-97422025D01*
X123931038Y-97573987D01*
X123784939Y-97792641D01*
X123684304Y-98035595D01*
X123633000Y-98293514D01*
X123633000Y-98508421D01*
X121832956Y-100308466D01*
X121799183Y-100336183D01*
X121688589Y-100470942D01*
X121606411Y-100624688D01*
X121594840Y-100662832D01*
X121555806Y-100791509D01*
X121555805Y-100791511D01*
X121543000Y-100921524D01*
X121543000Y-100921531D01*
X121538719Y-100965000D01*
X121543000Y-101008470D01*
X121543001Y-102191522D01*
X121538719Y-102235000D01*
X121555805Y-102408490D01*
X121606412Y-102575313D01*
X121688590Y-102729059D01*
X121771468Y-102830046D01*
X121771471Y-102830049D01*
X121799184Y-102863817D01*
X121832951Y-102891529D01*
X122269983Y-103328561D01*
X122263000Y-103363665D01*
X122263000Y-103646335D01*
X122318147Y-103923574D01*
X122426320Y-104184727D01*
X122583363Y-104419759D01*
X122783241Y-104619637D01*
X123018273Y-104776680D01*
X123279426Y-104884853D01*
X123556665Y-104940000D01*
X123839335Y-104940000D01*
X124116574Y-104884853D01*
X124377727Y-104776680D01*
X124612759Y-104619637D01*
X124812637Y-104419759D01*
X124969680Y-104184727D01*
X125077853Y-103923574D01*
X125091684Y-103854039D01*
X129806096Y-103854039D01*
X129846754Y-103988087D01*
X129966963Y-104242420D01*
X130134481Y-104468414D01*
X130342869Y-104657385D01*
X130584119Y-104802070D01*
X130848960Y-104896909D01*
X131071000Y-104775624D01*
X131071000Y-103632000D01*
X131325000Y-103632000D01*
X131325000Y-104775624D01*
X131547040Y-104896909D01*
X131712676Y-104837595D01*
X137346282Y-104837595D01*
X137390039Y-105156675D01*
X137495205Y-105461088D01*
X137588186Y-105635044D01*
X137852587Y-105730808D01*
X138808395Y-104775000D01*
X139167605Y-104775000D01*
X140123413Y-105730808D01*
X140387814Y-105635044D01*
X140528704Y-105345429D01*
X140610384Y-105033892D01*
X140629718Y-104712405D01*
X140585961Y-104393325D01*
X140480795Y-104088912D01*
X140387814Y-103914956D01*
X140123413Y-103819192D01*
X139167605Y-104775000D01*
X138808395Y-104775000D01*
X137852587Y-103819192D01*
X137588186Y-103914956D01*
X137447296Y-104204571D01*
X137365616Y-104516108D01*
X137346282Y-104837595D01*
X131712676Y-104837595D01*
X131811881Y-104802070D01*
X132053131Y-104657385D01*
X132261519Y-104468414D01*
X132429037Y-104242420D01*
X132549246Y-103988087D01*
X132589904Y-103854039D01*
X132467915Y-103632000D01*
X131325000Y-103632000D01*
X131071000Y-103632000D01*
X129928085Y-103632000D01*
X129806096Y-103854039D01*
X125091684Y-103854039D01*
X125133000Y-103646335D01*
X125133000Y-103363665D01*
X125126017Y-103328561D01*
X125298617Y-103155961D01*
X129806096Y-103155961D01*
X129928085Y-103378000D01*
X131071000Y-103378000D01*
X131071000Y-102234376D01*
X131325000Y-102234376D01*
X131325000Y-103378000D01*
X132467915Y-103378000D01*
X132589904Y-103155961D01*
X132549246Y-103021913D01*
X132429037Y-102767580D01*
X132261519Y-102541586D01*
X132053131Y-102352615D01*
X131811881Y-102207930D01*
X131547040Y-102113091D01*
X131325000Y-102234376D01*
X131071000Y-102234376D01*
X130848960Y-102113091D01*
X130584119Y-102207930D01*
X130342869Y-102352615D01*
X130134481Y-102541586D01*
X129966963Y-102767580D01*
X129846754Y-103021913D01*
X129806096Y-103155961D01*
X125298617Y-103155961D01*
X126604579Y-101850000D01*
X133491422Y-101850000D01*
X134471470Y-102830049D01*
X134499183Y-102863817D01*
X134532951Y-102891530D01*
X134532953Y-102891532D01*
X134561216Y-102914727D01*
X134633941Y-102974411D01*
X134787687Y-103056589D01*
X134954510Y-103107195D01*
X135084523Y-103120000D01*
X135084533Y-103120000D01*
X135127999Y-103124281D01*
X135171465Y-103120000D01*
X137612941Y-103120000D01*
X137718013Y-103277252D01*
X137945748Y-103504987D01*
X138054600Y-103577720D01*
X138032192Y-103639587D01*
X138988000Y-104595395D01*
X139943808Y-103639587D01*
X139921400Y-103577720D01*
X140030252Y-103504987D01*
X140257987Y-103277252D01*
X140436918Y-103009463D01*
X140560168Y-102711912D01*
X140623000Y-102396033D01*
X140623000Y-102073967D01*
X140560168Y-101758088D01*
X140436918Y-101460537D01*
X140257987Y-101192748D01*
X140030252Y-100965013D01*
X140030233Y-100965000D01*
X140030252Y-100964987D01*
X140257987Y-100737252D01*
X140363059Y-100580000D01*
X141111422Y-100580000D01*
X141863000Y-101331579D01*
X141863001Y-106948420D01*
X141111422Y-107700000D01*
X132320975Y-107700000D01*
X132169013Y-107548038D01*
X131950359Y-107401939D01*
X131707405Y-107301304D01*
X131449486Y-107250000D01*
X131186514Y-107250000D01*
X130928595Y-107301304D01*
X130685641Y-107401939D01*
X130466987Y-107548038D01*
X130281038Y-107733987D01*
X130134939Y-107952641D01*
X130034304Y-108195595D01*
X129983000Y-108453514D01*
X129983000Y-108668421D01*
X128182951Y-110468471D01*
X128149184Y-110496183D01*
X128121471Y-110529951D01*
X128121468Y-110529954D01*
X128038590Y-110630941D01*
X127956412Y-110784687D01*
X127905805Y-110951510D01*
X127888719Y-111125000D01*
X127893001Y-111168479D01*
X127893000Y-113800479D01*
X127863241Y-113820363D01*
X127663363Y-114020241D01*
X127643479Y-114050000D01*
X126281465Y-114050000D01*
X126237999Y-114045719D01*
X126194533Y-114050000D01*
X126194523Y-114050000D01*
X126064510Y-114062805D01*
X125897687Y-114113411D01*
X125743941Y-114195589D01*
X125743939Y-114195590D01*
X125743940Y-114195590D01*
X125642953Y-114278468D01*
X125642951Y-114278470D01*
X125609183Y-114306183D01*
X125581470Y-114339951D01*
X124372951Y-115548471D01*
X124339184Y-115576183D01*
X124311471Y-115609951D01*
X124311468Y-115609954D01*
X124228590Y-115710941D01*
X124146412Y-115864687D01*
X124095805Y-116031510D01*
X124078719Y-116205000D01*
X124083001Y-116248479D01*
X124083000Y-119971531D01*
X124078719Y-120015000D01*
X124083000Y-120058469D01*
X124083000Y-120058476D01*
X124087281Y-120101939D01*
X124095805Y-120188490D01*
X124111157Y-120239096D01*
X124146411Y-120355312D01*
X124228589Y-120509058D01*
X124339183Y-120643817D01*
X124372954Y-120671532D01*
X124859422Y-121158000D01*
X124705323Y-121158000D01*
X124190065Y-121260492D01*
X123704702Y-121461536D01*
X123267887Y-121753406D01*
X122896406Y-122124887D01*
X122604536Y-122561702D01*
X122403492Y-123047065D01*
X122301000Y-123562323D01*
X122301000Y-124087677D01*
X122403492Y-124602935D01*
X122604536Y-125088298D01*
X122896406Y-125525113D01*
X123026293Y-125655000D01*
X111708000Y-125655000D01*
X111708000Y-108918329D01*
X124945284Y-108918329D01*
X124977953Y-109026044D01*
X125088208Y-109263392D01*
X125242649Y-109474670D01*
X125435340Y-109651759D01*
X125658877Y-109787853D01*
X125904670Y-109877722D01*
X126111000Y-109755201D01*
X126111000Y-108712000D01*
X126365000Y-108712000D01*
X126365000Y-109755201D01*
X126571330Y-109877722D01*
X126817123Y-109787853D01*
X127040660Y-109651759D01*
X127233351Y-109474670D01*
X127387792Y-109263392D01*
X127498047Y-109026044D01*
X127530716Y-108918329D01*
X127407374Y-108712000D01*
X126365000Y-108712000D01*
X126111000Y-108712000D01*
X125068626Y-108712000D01*
X124945284Y-108918329D01*
X111708000Y-108918329D01*
X111708000Y-108251671D01*
X124945284Y-108251671D01*
X125068626Y-108458000D01*
X126111000Y-108458000D01*
X126111000Y-107414799D01*
X126365000Y-107414799D01*
X126365000Y-108458000D01*
X127407374Y-108458000D01*
X127530716Y-108251671D01*
X127498047Y-108143956D01*
X127387792Y-107906608D01*
X127233351Y-107695330D01*
X127040660Y-107518241D01*
X126817123Y-107382147D01*
X126571330Y-107292278D01*
X126365000Y-107414799D01*
X126111000Y-107414799D01*
X125904670Y-107292278D01*
X125658877Y-107382147D01*
X125435340Y-107518241D01*
X125242649Y-107695330D01*
X125088208Y-107906608D01*
X124977953Y-108143956D01*
X124945284Y-108251671D01*
X111708000Y-108251671D01*
X111708000Y-105910413D01*
X138032192Y-105910413D01*
X138127956Y-106174814D01*
X138417571Y-106315704D01*
X138729108Y-106397384D01*
X139050595Y-106416718D01*
X139369675Y-106372961D01*
X139674088Y-106267795D01*
X139848044Y-106174814D01*
X139943808Y-105910413D01*
X138988000Y-104954605D01*
X138032192Y-105910413D01*
X111708000Y-105910413D01*
X111708000Y-73735000D01*
X111748000Y-73735000D01*
X111748000Y-92970000D01*
M02*
